<?xml version="1.0" encoding="utf-8" standalone="no"?>
<!DOCTYPE svg PUBLIC "-//W3C//DTD SVG 1.1//EN"
  "http://www.w3.org/Graphics/SVG/1.1/DTD/svg11.dtd">
<!-- Created with matplotlib (https://matplotlib.org/) -->
<svg height="268.422812pt" version="1.1" viewBox="0 0 719.497021 268.422812" width="719.497021pt" xmlns="http://www.w3.org/2000/svg" xmlns:xlink="http://www.w3.org/1999/xlink">
 <metadata>
  <rdf:RDF xmlns:cc="http://creativecommons.org/ns#" xmlns:dc="http://purl.org/dc/elements/1.1/" xmlns:rdf="http://www.w3.org/1999/02/22-rdf-syntax-ns#">
   <cc:Work>
    <dc:type rdf:resource="http://purl.org/dc/dcmitype/StillImage"/>
    <dc:date>2020-12-10T02:42:09.052126</dc:date>
    <dc:format>image/svg+xml</dc:format>
    <dc:creator>
     <cc:Agent>
      <dc:title>Matplotlib v3.3.3, https://matplotlib.org/</dc:title>
     </cc:Agent>
    </dc:creator>
   </cc:Work>
  </rdf:RDF>
 </metadata>
 <defs>
  <style type="text/css">*{stroke-linecap:butt;stroke-linejoin:round;}</style>
 </defs>
 <g id="figure_1">
  <g id="patch_1">
   <path d="M 0 268.422812 
L 719.497021 268.422812 
L 719.497021 0 
L 0 0 
z
" style="fill:#ffffff;"/>
  </g>
  <g id="axes_1">
   <g id="patch_2">
    <path d="M 46.297021 225.36 
L 715.897021 225.36 
L 715.897021 3.6 
L 46.297021 3.6 
z
" style="fill:#ffffff;"/>
   </g>
   <g id="matplotlib.axis_1">
    <g id="xtick_1">
     <g id="line2d_1">
      <path clip-path="url(#pdb5ca1e0e8)" d="M 46.297021 225.36 
L 46.297021 3.6 
" style="fill:none;stroke:#000000;stroke-dasharray:0.5,0.825;stroke-dashoffset:0;stroke-opacity:0.5;stroke-width:0.5;"/>
     </g>
     <g id="line2d_2">
      <defs>
       <path d="M 0 0 
L 0 -3 
" id="mdc6a3a232a" style="stroke:#000000;stroke-width:0.5;"/>
      </defs>
      <g>
       <use style="stroke:#000000;stroke-width:0.5;" x="46.297021" xlink:href="#mdc6a3a232a" y="225.36"/>
      </g>
     </g>
     <g id="line2d_3">
      <defs>
       <path d="M 0 0 
L 0 3 
" id="mc0fc96d54f" style="stroke:#000000;stroke-width:0.5;"/>
      </defs>
      <g>
       <use style="stroke:#000000;stroke-width:0.5;" x="46.297021" xlink:href="#mc0fc96d54f" y="3.6"/>
      </g>
     </g>
     <g id="text_1">
      <!-- $\mathdefault{0}$ -->
      <g transform="translate(42.413331 240.621452)scale(0.17 -0.17)">
       <defs>
        <path d="M 42 31.640625 
C 42 37.75 41.90625 48.125 37.703125 56.109375 
C 34 63.109375 28.09375 65.59375 22.90625 65.59375 
C 18.09375 65.59375 12 63.40625 8.203125 56.203125 
C 4.203125 48.71875 3.796875 39.4375 3.796875 31.640625 
C 3.796875 25.953125 3.90625 17.28125 7 9.671875 
C 11.296875 -0.609375 19 -2 22.90625 -2 
C 27.5 -2 34.5 -0.109375 38.59375 9.375 
C 41.59375 16.28125 42 24.359375 42 31.640625 
z
M 22.90625 -0.40625 
C 16.5 -0.40625 12.703125 5.078125 11.296875 12.6875 
C 10.203125 18.5625 10.203125 27.15625 10.203125 32.75 
C 10.203125 40.4375 10.203125 46.828125 11.5 52.921875 
C 13.40625 61.390625 19 64 22.90625 64 
C 27 64 32.296875 61.296875 34.203125 53.125 
C 35.5 47.4375 35.59375 40.734375 35.59375 32.75 
C 35.59375 26.25 35.59375 18.265625 34.40625 12.375 
C 32.296875 1.484375 26.40625 -0.40625 22.90625 -0.40625 
z
" id="CMR17-48"/>
       </defs>
       <use transform="scale(0.996264)" xlink:href="#CMR17-48"/>
      </g>
     </g>
    </g>
    <g id="xtick_2">
     <g id="line2d_4">
      <path clip-path="url(#pdb5ca1e0e8)" d="M 148.610441 225.36 
L 148.610441 3.6 
" style="fill:none;stroke:#000000;stroke-dasharray:0.5,0.825;stroke-dashoffset:0;stroke-opacity:0.5;stroke-width:0.5;"/>
     </g>
     <g id="line2d_5">
      <g>
       <use style="stroke:#000000;stroke-width:0.5;" x="148.610441" xlink:href="#mdc6a3a232a" y="225.36"/>
      </g>
     </g>
     <g id="line2d_6">
      <g>
       <use style="stroke:#000000;stroke-width:0.5;" x="148.610441" xlink:href="#mc0fc96d54f" y="3.6"/>
      </g>
     </g>
     <g id="text_2">
      <!-- $\mathdefault{50}$ -->
      <g transform="translate(140.84306 240.621452)scale(0.17 -0.17)">
       <defs>
        <path d="M 11.40625 57.6875 
C 12.40625 57.28125 16.5 56 20.703125 56 
C 30 56 35.09375 61.109375 38 64.0625 
C 38 64.953125 38 65.5 37.40625 65.5 
C 37.296875 65.5 37.09375 65.5 36.296875 65.046875 
C 32.796875 63.40625 28.703125 62.078125 23.703125 62.078125 
C 20.703125 62.078125 16.203125 62.484375 11.296875 64.671875 
C 10.203125 65.171875 10 65.171875 9.90625 65.171875 
C 9.40625 65.171875 9.296875 65.0625 9.296875 63.078125 
L 9.296875 34.421875 
C 9.296875 32.640625 9.296875 32.140625 10.296875 32.140625 
C 10.796875 32.140625 11 32.34375 11.5 33.03125 
C 14.703125 37.515625 19.09375 39.40625 24.09375 39.40625 
C 27.59375 39.40625 35.09375 37.21875 35.09375 20.140625 
C 35.09375 16.953125 35.09375 11.171875 32.09375 6.578125 
C 29.59375 2.484375 25.703125 0.390625 21.40625 0.390625 
C 14.796875 0.390625 8.09375 5 6.296875 12.71875 
C 6.703125 12.609375 7.5 12.421875 7.90625 12.421875 
C 9.203125 12.421875 11.703125 13.125 11.703125 16.21875 
C 11.703125 18.90625 9.796875 20 7.90625 20 
C 5.59375 20 4.09375 18.59375 4.09375 15.796875 
C 4.09375 7.09375 11 -2 21.59375 -2 
C 31.90625 -2 41.703125 6.875 41.703125 19.75 
C 41.703125 31.71875 33.90625 41 24.203125 41 
C 19.09375 41 14.796875 39.109375 11.40625 35.53125 
z
" id="CMR17-53"/>
       </defs>
       <use transform="scale(0.996264)" xlink:href="#CMR17-53"/>
       <use transform="translate(45.690477 0)scale(0.996264)" xlink:href="#CMR17-48"/>
      </g>
     </g>
    </g>
    <g id="xtick_3">
     <g id="line2d_7">
      <path clip-path="url(#pdb5ca1e0e8)" d="M 250.923861 225.36 
L 250.923861 3.6 
" style="fill:none;stroke:#000000;stroke-dasharray:0.5,0.825;stroke-dashoffset:0;stroke-opacity:0.5;stroke-width:0.5;"/>
     </g>
     <g id="line2d_8">
      <g>
       <use style="stroke:#000000;stroke-width:0.5;" x="250.923861" xlink:href="#mdc6a3a232a" y="225.36"/>
      </g>
     </g>
     <g id="line2d_9">
      <g>
       <use style="stroke:#000000;stroke-width:0.5;" x="250.923861" xlink:href="#mc0fc96d54f" y="3.6"/>
      </g>
     </g>
     <g id="text_3">
      <!-- $\mathdefault{100}$ -->
      <g transform="translate(239.27279 240.621452)scale(0.17 -0.17)">
       <defs>
        <path d="M 26.59375 63.40625 
C 26.59375 65.5 26.5 65.5 25.09375 65.5 
C 21.203125 61.1875 15.296875 59.796875 9.703125 59.796875 
C 9.40625 59.796875 8.90625 59.796875 8.796875 59.5 
C 8.703125 59.296875 8.703125 59.09375 8.703125 57 
C 11.796875 57 17 57.59375 21 59.984375 
L 21 7.203125 
C 21 3.6875 20.796875 2.5 12.203125 2.5 
L 9.203125 2.5 
L 9.203125 0 
C 14 0 19 0 23.796875 0 
C 28.59375 0 33.59375 0 38.40625 0 
L 38.40625 2.5 
L 35.40625 2.5 
C 26.796875 2.5 26.59375 3.59375 26.59375 7.15625 
z
" id="CMR17-49"/>
       </defs>
       <use transform="scale(0.996264)" xlink:href="#CMR17-49"/>
       <use transform="translate(45.690477 0)scale(0.996264)" xlink:href="#CMR17-48"/>
       <use transform="translate(91.380954 0)scale(0.996264)" xlink:href="#CMR17-48"/>
      </g>
     </g>
    </g>
    <g id="xtick_4">
     <g id="line2d_10">
      <path clip-path="url(#pdb5ca1e0e8)" d="M 353.237282 225.36 
L 353.237282 3.6 
" style="fill:none;stroke:#000000;stroke-dasharray:0.5,0.825;stroke-dashoffset:0;stroke-opacity:0.5;stroke-width:0.5;"/>
     </g>
     <g id="line2d_11">
      <g>
       <use style="stroke:#000000;stroke-width:0.5;" x="353.237282" xlink:href="#mdc6a3a232a" y="225.36"/>
      </g>
     </g>
     <g id="line2d_12">
      <g>
       <use style="stroke:#000000;stroke-width:0.5;" x="353.237282" xlink:href="#mc0fc96d54f" y="3.6"/>
      </g>
     </g>
     <g id="text_4">
      <!-- $\mathdefault{150}$ -->
      <g transform="translate(341.58621 240.621452)scale(0.17 -0.17)">
       <use transform="scale(0.996264)" xlink:href="#CMR17-49"/>
       <use transform="translate(45.690477 0)scale(0.996264)" xlink:href="#CMR17-53"/>
       <use transform="translate(91.380954 0)scale(0.996264)" xlink:href="#CMR17-48"/>
      </g>
     </g>
    </g>
    <g id="xtick_5">
     <g id="line2d_13">
      <path clip-path="url(#pdb5ca1e0e8)" d="M 455.550702 225.36 
L 455.550702 3.6 
" style="fill:none;stroke:#000000;stroke-dasharray:0.5,0.825;stroke-dashoffset:0;stroke-opacity:0.5;stroke-width:0.5;"/>
     </g>
     <g id="line2d_14">
      <g>
       <use style="stroke:#000000;stroke-width:0.5;" x="455.550702" xlink:href="#mdc6a3a232a" y="225.36"/>
      </g>
     </g>
     <g id="line2d_15">
      <g>
       <use style="stroke:#000000;stroke-width:0.5;" x="455.550702" xlink:href="#mc0fc96d54f" y="3.6"/>
      </g>
     </g>
     <g id="text_5">
      <!-- $\mathdefault{200}$ -->
      <g transform="translate(443.89963 240.621452)scale(0.17 -0.17)">
       <defs>
        <path d="M 41.703125 15.453125 
L 39.90625 15.453125 
C 38.90625 8.375 38.09375 7.171875 37.703125 6.5625 
C 37.203125 5.765625 30 5.765625 28.59375 5.765625 
L 9.40625 5.765625 
C 13 9.671875 20 16.75 28.5 24.953125 
C 34.59375 30.734375 41.703125 37.53125 41.703125 47.421875 
C 41.703125 59.21875 32.296875 66 21.796875 66 
C 10.796875 66 4.09375 56.3125 4.09375 47.34375 
C 4.09375 43.4375 7 42.9375 8.203125 42.9375 
C 9.203125 42.9375 12.203125 43.546875 12.203125 47.03125 
C 12.203125 50.109375 9.59375 51 8.203125 51 
C 7.59375 51 7 50.90625 6.59375 50.703125 
C 8.5 59.21875 14.296875 63.40625 20.40625 63.40625 
C 29.09375 63.40625 34.796875 56.515625 34.796875 47.421875 
C 34.796875 38.734375 29.703125 31.25 24 24.75 
L 4.09375 2.28125 
L 4.09375 0 
L 39.296875 0 
z
" id="CMR17-50"/>
       </defs>
       <use transform="scale(0.996264)" xlink:href="#CMR17-50"/>
       <use transform="translate(45.690477 0)scale(0.996264)" xlink:href="#CMR17-48"/>
       <use transform="translate(91.380954 0)scale(0.996264)" xlink:href="#CMR17-48"/>
      </g>
     </g>
    </g>
    <g id="xtick_6">
     <g id="line2d_16">
      <path clip-path="url(#pdb5ca1e0e8)" d="M 557.864122 225.36 
L 557.864122 3.6 
" style="fill:none;stroke:#000000;stroke-dasharray:0.5,0.825;stroke-dashoffset:0;stroke-opacity:0.5;stroke-width:0.5;"/>
     </g>
     <g id="line2d_17">
      <g>
       <use style="stroke:#000000;stroke-width:0.5;" x="557.864122" xlink:href="#mdc6a3a232a" y="225.36"/>
      </g>
     </g>
     <g id="line2d_18">
      <g>
       <use style="stroke:#000000;stroke-width:0.5;" x="557.864122" xlink:href="#mc0fc96d54f" y="3.6"/>
      </g>
     </g>
     <g id="text_6">
      <!-- $\mathdefault{250}$ -->
      <g transform="translate(546.21305 240.621452)scale(0.17 -0.17)">
       <use transform="scale(0.996264)" xlink:href="#CMR17-50"/>
       <use transform="translate(45.690477 0)scale(0.996264)" xlink:href="#CMR17-53"/>
       <use transform="translate(91.380954 0)scale(0.996264)" xlink:href="#CMR17-48"/>
      </g>
     </g>
    </g>
    <g id="xtick_7">
     <g id="line2d_19">
      <path clip-path="url(#pdb5ca1e0e8)" d="M 660.177542 225.36 
L 660.177542 3.6 
" style="fill:none;stroke:#000000;stroke-dasharray:0.5,0.825;stroke-dashoffset:0;stroke-opacity:0.5;stroke-width:0.5;"/>
     </g>
     <g id="line2d_20">
      <g>
       <use style="stroke:#000000;stroke-width:0.5;" x="660.177542" xlink:href="#mdc6a3a232a" y="225.36"/>
      </g>
     </g>
     <g id="line2d_21">
      <g>
       <use style="stroke:#000000;stroke-width:0.5;" x="660.177542" xlink:href="#mc0fc96d54f" y="3.6"/>
      </g>
     </g>
     <g id="text_7">
      <!-- $\mathdefault{300}$ -->
      <g transform="translate(648.52647 240.621452)scale(0.17 -0.17)">
       <defs>
        <path d="M 22.09375 33.703125 
C 31 33.703125 34.90625 25.96875 34.90625 17.03125 
C 34.90625 5 28.5 0.390625 22.703125 0.390625 
C 17.40625 0.390625 8.796875 3.03125 6.09375 10.828125 
C 6.59375 10.625 7.09375 10.625 7.59375 10.625 
C 10 10.625 11.796875 12.21875 11.796875 14.8125 
C 11.796875 17.703125 9.59375 19 7.59375 19 
C 5.90625 19 3.296875 18.203125 3.296875 14.46875 
C 3.296875 5.234375 12.296875 -2 22.90625 -2 
C 34 -2 42.5 6.71875 42.5 16.953125 
C 42.5 26.671875 34.5 33.703125 25 34.796875 
C 32.59375 36.375 39.90625 43.0625 39.90625 52.015625 
C 39.90625 59.6875 32 65.296875 23 65.296875 
C 13.90625 65.296875 5.90625 59.828125 5.90625 52.015625 
C 5.90625 48.59375 8.5 48 9.796875 48 
C 11.90625 48 13.703125 49.296875 13.703125 51.890625 
C 13.703125 54.46875 11.90625 55.765625 9.796875 55.765625 
C 9.40625 55.765625 8.90625 55.765625 8.5 55.578125 
C 11.40625 61.859375 19.296875 63 22.796875 63 
C 26.296875 63 32.90625 61.328125 32.90625 51.875 
C 32.90625 49.109375 32.5 44.1875 29.09375 39.84375 
C 26.09375 36 22.703125 36 19.40625 35.6875 
C 18.90625 35.6875 16.59375 35.453125 16.203125 35.453125 
C 15.5 35.359375 15.09375 35.265625 15.09375 34.5 
C 15.09375 33.796875 15.203125 33.703125 17.203125 33.703125 
z
" id="CMR17-51"/>
       </defs>
       <use transform="scale(0.996264)" xlink:href="#CMR17-51"/>
       <use transform="translate(45.690477 0)scale(0.996264)" xlink:href="#CMR17-48"/>
       <use transform="translate(91.380954 0)scale(0.996264)" xlink:href="#CMR17-48"/>
      </g>
     </g>
    </g>
    <g id="xtick_8">
     <g id="line2d_22">
      <defs>
       <path d="M 0 0 
L 0 -1.5 
" id="m588475cdb3" style="stroke:#000000;stroke-width:0.5;"/>
      </defs>
      <g>
       <use style="stroke:#000000;stroke-width:0.5;" x="66.759705" xlink:href="#m588475cdb3" y="225.36"/>
      </g>
     </g>
     <g id="line2d_23">
      <defs>
       <path d="M 0 0 
L 0 1.5 
" id="m79645e5800" style="stroke:#000000;stroke-width:0.5;"/>
      </defs>
      <g>
       <use style="stroke:#000000;stroke-width:0.5;" x="66.759705" xlink:href="#m79645e5800" y="3.6"/>
      </g>
     </g>
    </g>
    <g id="xtick_9">
     <g id="line2d_24">
      <g>
       <use style="stroke:#000000;stroke-width:0.5;" x="87.222389" xlink:href="#m588475cdb3" y="225.36"/>
      </g>
     </g>
     <g id="line2d_25">
      <g>
       <use style="stroke:#000000;stroke-width:0.5;" x="87.222389" xlink:href="#m79645e5800" y="3.6"/>
      </g>
     </g>
    </g>
    <g id="xtick_10">
     <g id="line2d_26">
      <g>
       <use style="stroke:#000000;stroke-width:0.5;" x="107.685073" xlink:href="#m588475cdb3" y="225.36"/>
      </g>
     </g>
     <g id="line2d_27">
      <g>
       <use style="stroke:#000000;stroke-width:0.5;" x="107.685073" xlink:href="#m79645e5800" y="3.6"/>
      </g>
     </g>
    </g>
    <g id="xtick_11">
     <g id="line2d_28">
      <g>
       <use style="stroke:#000000;stroke-width:0.5;" x="128.147757" xlink:href="#m588475cdb3" y="225.36"/>
      </g>
     </g>
     <g id="line2d_29">
      <g>
       <use style="stroke:#000000;stroke-width:0.5;" x="128.147757" xlink:href="#m79645e5800" y="3.6"/>
      </g>
     </g>
    </g>
    <g id="xtick_12">
     <g id="line2d_30">
      <g>
       <use style="stroke:#000000;stroke-width:0.5;" x="169.073125" xlink:href="#m588475cdb3" y="225.36"/>
      </g>
     </g>
     <g id="line2d_31">
      <g>
       <use style="stroke:#000000;stroke-width:0.5;" x="169.073125" xlink:href="#m79645e5800" y="3.6"/>
      </g>
     </g>
    </g>
    <g id="xtick_13">
     <g id="line2d_32">
      <g>
       <use style="stroke:#000000;stroke-width:0.5;" x="189.535809" xlink:href="#m588475cdb3" y="225.36"/>
      </g>
     </g>
     <g id="line2d_33">
      <g>
       <use style="stroke:#000000;stroke-width:0.5;" x="189.535809" xlink:href="#m79645e5800" y="3.6"/>
      </g>
     </g>
    </g>
    <g id="xtick_14">
     <g id="line2d_34">
      <g>
       <use style="stroke:#000000;stroke-width:0.5;" x="209.998493" xlink:href="#m588475cdb3" y="225.36"/>
      </g>
     </g>
     <g id="line2d_35">
      <g>
       <use style="stroke:#000000;stroke-width:0.5;" x="209.998493" xlink:href="#m79645e5800" y="3.6"/>
      </g>
     </g>
    </g>
    <g id="xtick_15">
     <g id="line2d_36">
      <g>
       <use style="stroke:#000000;stroke-width:0.5;" x="230.461177" xlink:href="#m588475cdb3" y="225.36"/>
      </g>
     </g>
     <g id="line2d_37">
      <g>
       <use style="stroke:#000000;stroke-width:0.5;" x="230.461177" xlink:href="#m79645e5800" y="3.6"/>
      </g>
     </g>
    </g>
    <g id="xtick_16">
     <g id="line2d_38">
      <g>
       <use style="stroke:#000000;stroke-width:0.5;" x="271.386545" xlink:href="#m588475cdb3" y="225.36"/>
      </g>
     </g>
     <g id="line2d_39">
      <g>
       <use style="stroke:#000000;stroke-width:0.5;" x="271.386545" xlink:href="#m79645e5800" y="3.6"/>
      </g>
     </g>
    </g>
    <g id="xtick_17">
     <g id="line2d_40">
      <g>
       <use style="stroke:#000000;stroke-width:0.5;" x="291.849229" xlink:href="#m588475cdb3" y="225.36"/>
      </g>
     </g>
     <g id="line2d_41">
      <g>
       <use style="stroke:#000000;stroke-width:0.5;" x="291.849229" xlink:href="#m79645e5800" y="3.6"/>
      </g>
     </g>
    </g>
    <g id="xtick_18">
     <g id="line2d_42">
      <g>
       <use style="stroke:#000000;stroke-width:0.5;" x="312.311913" xlink:href="#m588475cdb3" y="225.36"/>
      </g>
     </g>
     <g id="line2d_43">
      <g>
       <use style="stroke:#000000;stroke-width:0.5;" x="312.311913" xlink:href="#m79645e5800" y="3.6"/>
      </g>
     </g>
    </g>
    <g id="xtick_19">
     <g id="line2d_44">
      <g>
       <use style="stroke:#000000;stroke-width:0.5;" x="332.774597" xlink:href="#m588475cdb3" y="225.36"/>
      </g>
     </g>
     <g id="line2d_45">
      <g>
       <use style="stroke:#000000;stroke-width:0.5;" x="332.774597" xlink:href="#m79645e5800" y="3.6"/>
      </g>
     </g>
    </g>
    <g id="xtick_20">
     <g id="line2d_46">
      <g>
       <use style="stroke:#000000;stroke-width:0.5;" x="373.699966" xlink:href="#m588475cdb3" y="225.36"/>
      </g>
     </g>
     <g id="line2d_47">
      <g>
       <use style="stroke:#000000;stroke-width:0.5;" x="373.699966" xlink:href="#m79645e5800" y="3.6"/>
      </g>
     </g>
    </g>
    <g id="xtick_21">
     <g id="line2d_48">
      <g>
       <use style="stroke:#000000;stroke-width:0.5;" x="394.16265" xlink:href="#m588475cdb3" y="225.36"/>
      </g>
     </g>
     <g id="line2d_49">
      <g>
       <use style="stroke:#000000;stroke-width:0.5;" x="394.16265" xlink:href="#m79645e5800" y="3.6"/>
      </g>
     </g>
    </g>
    <g id="xtick_22">
     <g id="line2d_50">
      <g>
       <use style="stroke:#000000;stroke-width:0.5;" x="414.625334" xlink:href="#m588475cdb3" y="225.36"/>
      </g>
     </g>
     <g id="line2d_51">
      <g>
       <use style="stroke:#000000;stroke-width:0.5;" x="414.625334" xlink:href="#m79645e5800" y="3.6"/>
      </g>
     </g>
    </g>
    <g id="xtick_23">
     <g id="line2d_52">
      <g>
       <use style="stroke:#000000;stroke-width:0.5;" x="435.088018" xlink:href="#m588475cdb3" y="225.36"/>
      </g>
     </g>
     <g id="line2d_53">
      <g>
       <use style="stroke:#000000;stroke-width:0.5;" x="435.088018" xlink:href="#m79645e5800" y="3.6"/>
      </g>
     </g>
    </g>
    <g id="xtick_24">
     <g id="line2d_54">
      <g>
       <use style="stroke:#000000;stroke-width:0.5;" x="476.013386" xlink:href="#m588475cdb3" y="225.36"/>
      </g>
     </g>
     <g id="line2d_55">
      <g>
       <use style="stroke:#000000;stroke-width:0.5;" x="476.013386" xlink:href="#m79645e5800" y="3.6"/>
      </g>
     </g>
    </g>
    <g id="xtick_25">
     <g id="line2d_56">
      <g>
       <use style="stroke:#000000;stroke-width:0.5;" x="496.47607" xlink:href="#m588475cdb3" y="225.36"/>
      </g>
     </g>
     <g id="line2d_57">
      <g>
       <use style="stroke:#000000;stroke-width:0.5;" x="496.47607" xlink:href="#m79645e5800" y="3.6"/>
      </g>
     </g>
    </g>
    <g id="xtick_26">
     <g id="line2d_58">
      <g>
       <use style="stroke:#000000;stroke-width:0.5;" x="516.938754" xlink:href="#m588475cdb3" y="225.36"/>
      </g>
     </g>
     <g id="line2d_59">
      <g>
       <use style="stroke:#000000;stroke-width:0.5;" x="516.938754" xlink:href="#m79645e5800" y="3.6"/>
      </g>
     </g>
    </g>
    <g id="xtick_27">
     <g id="line2d_60">
      <g>
       <use style="stroke:#000000;stroke-width:0.5;" x="537.401438" xlink:href="#m588475cdb3" y="225.36"/>
      </g>
     </g>
     <g id="line2d_61">
      <g>
       <use style="stroke:#000000;stroke-width:0.5;" x="537.401438" xlink:href="#m79645e5800" y="3.6"/>
      </g>
     </g>
    </g>
    <g id="xtick_28">
     <g id="line2d_62">
      <g>
       <use style="stroke:#000000;stroke-width:0.5;" x="578.326806" xlink:href="#m588475cdb3" y="225.36"/>
      </g>
     </g>
     <g id="line2d_63">
      <g>
       <use style="stroke:#000000;stroke-width:0.5;" x="578.326806" xlink:href="#m79645e5800" y="3.6"/>
      </g>
     </g>
    </g>
    <g id="xtick_29">
     <g id="line2d_64">
      <g>
       <use style="stroke:#000000;stroke-width:0.5;" x="598.78949" xlink:href="#m588475cdb3" y="225.36"/>
      </g>
     </g>
     <g id="line2d_65">
      <g>
       <use style="stroke:#000000;stroke-width:0.5;" x="598.78949" xlink:href="#m79645e5800" y="3.6"/>
      </g>
     </g>
    </g>
    <g id="xtick_30">
     <g id="line2d_66">
      <g>
       <use style="stroke:#000000;stroke-width:0.5;" x="619.252174" xlink:href="#m588475cdb3" y="225.36"/>
      </g>
     </g>
     <g id="line2d_67">
      <g>
       <use style="stroke:#000000;stroke-width:0.5;" x="619.252174" xlink:href="#m79645e5800" y="3.6"/>
      </g>
     </g>
    </g>
    <g id="xtick_31">
     <g id="line2d_68">
      <g>
       <use style="stroke:#000000;stroke-width:0.5;" x="639.714858" xlink:href="#m588475cdb3" y="225.36"/>
      </g>
     </g>
     <g id="line2d_69">
      <g>
       <use style="stroke:#000000;stroke-width:0.5;" x="639.714858" xlink:href="#m79645e5800" y="3.6"/>
      </g>
     </g>
    </g>
    <g id="xtick_32">
     <g id="line2d_70">
      <g>
       <use style="stroke:#000000;stroke-width:0.5;" x="680.640226" xlink:href="#m588475cdb3" y="225.36"/>
      </g>
     </g>
     <g id="line2d_71">
      <g>
       <use style="stroke:#000000;stroke-width:0.5;" x="680.640226" xlink:href="#m79645e5800" y="3.6"/>
      </g>
     </g>
    </g>
    <g id="xtick_33">
     <g id="line2d_72">
      <g>
       <use style="stroke:#000000;stroke-width:0.5;" x="701.10291" xlink:href="#m588475cdb3" y="225.36"/>
      </g>
     </g>
     <g id="line2d_73">
      <g>
       <use style="stroke:#000000;stroke-width:0.5;" x="701.10291" xlink:href="#m79645e5800" y="3.6"/>
      </g>
     </g>
    </g>
    <g id="text_8">
     <!-- Coordenada Axial $x$ (mm) -->
     <g transform="translate(290.726157 260.602858)scale(0.17 -0.17)">
      <defs>
       <path d="M 62.09375 67.015625 
C 62.09375 68.796875 62 68.90625 61.40625 68.90625 
C 61 68.90625 60.90625 68.796875 60.203125 67.609375 
L 55.796875 59.25 
C 50.90625 65.421875 44.90625 69 37.203125 69 
C 20.09375 69 4.59375 54 4.59375 33.5625 
C 4.59375 12.90625 20.09375 -2 37.296875 -2 
C 52.59375 -2 62.09375 11.40625 62.09375 22.828125 
C 62.09375 23.8125 62.09375 24.21875 61.203125 24.21875 
C 60.40625 24.21875 60.40625 23.921875 60.296875 23.03125 
C 59.5 9.140625 49.5 0.59375 38.703125 0.59375 
C 28.5 0.59375 12.203125 7.734375 12.203125 33.546875 
C 12.203125 59.453125 28.796875 66.40625 38.5 66.40625 
C 49.796875 66.40625 58 56.6875 59.90625 42.890625 
C 60.09375 41.6875 60.09375 41.484375 61 41.484375 
C 62.09375 41.484375 62.09375 41.6875 62.09375 43.484375 
z
" id="CMR17-67"/>
       <path d="M 43.09375 21.1875 
C 43.09375 34 33.796875 44 22.90625 44 
C 12 44 2.703125 34 2.703125 21.1875 
C 2.703125 8.609375 12 -1 22.90625 -1 
C 33.796875 -1 43.09375 8.609375 43.09375 21.1875 
z
M 22.90625 0.796875 
C 18.203125 0.796875 14.203125 3.59375 11.90625 7.5 
C 9.40625 11.984375 9.09375 17.59375 9.09375 22 
C 9.09375 26.203125 9.296875 31.40625 11.90625 35.90625 
C 13.90625 39.203125 17.796875 42.40625 22.90625 42.40625 
C 27.40625 42.40625 31.203125 39.90625 33.59375 36.40625 
C 36.703125 31.703125 36.703125 25.109375 36.703125 22 
C 36.703125 18.09375 36.5 12.109375 33.796875 7.296875 
C 31 2.703125 26.703125 0.796875 22.90625 0.796875 
z
" id="CMR17-111"/>
       <path d="M 15 23.390625 
C 15 33 19.09375 42 26.59375 42 
C 27.296875 42 28 41.90625 28.703125 41.59375 
C 28.703125 41.59375 26.5 40.890625 26.5 38.3125 
C 26.5 35.90625 28.40625 34.90625 29.90625 34.90625 
C 31.09375 34.90625 33.296875 35.609375 33.296875 38.40625 
C 33.296875 41.609375 30.09375 43.59375 26.703125 43.59375 
C 19.09375 43.59375 15.796875 36.203125 14.796875 32.703125 
L 14.703125 32.703125 
L 14.703125 43.59375 
L 3.09375 42.5 
L 3.09375 39.90625 
C 9 39.90625 9.90625 39.296875 9.90625 34.5 
L 9.90625 6.6875 
C 9.90625 2.875 9.5 2.390625 3.09375 2.390625 
L 3.09375 -0.203125 
C 5.5 0 10.09375 0 12.703125 0 
C 15.59375 0 20.703125 0 23.40625 -0.203125 
L 23.40625 2.390625 
C 16.203125 2.390625 15 2.390625 15 6.875 
z
" id="CMR17-114"/>
       <path d="M 29.203125 67.59375 
L 29.203125 65 
C 35.09375 65 36 64.40625 36 59.6875 
L 36 36.640625 
C 35.59375 37.140625 31.5 43.59375 23.40625 43.59375 
C 13.203125 43.59375 3.296875 34.5 3.296875 21.3125 
C 3.296875 8.203125 12.59375 -1 22.40625 -1 
C 30.90625 -1 35.296875 5.265625 35.796875 5.9375 
L 35.796875 -0.984375 
L 47.90625 -0.984375 
L 47.90625 2 
C 42 2 41.09375 2.59375 41.09375 7.390625 
L 41.09375 68.6875 
z
M 35.796875 11.796875 
C 35.796875 8.796875 34 6.09375 31.703125 4.09375 
C 28.296875 1.09375 24.90625 0.59375 23 0.59375 
C 20.09375 0.59375 9.703125 2.09375 9.703125 21.1875 
C 9.703125 40.8125 21.296875 42 23.90625 42 
C 28.5 42 32.203125 39.40625 34.5 35.796875 
C 35.796875 33.703125 35.796875 33.40625 35.796875 31.609375 
z
" id="CMR17-100"/>
       <path d="M 38.09375 23 
C 38.5 23.40625 38.5 23.609375 38.5 24.625 
C 38.5 34.96875 33.09375 44 21.703125 44 
C 11.09375 44 2.703125 33.890625 2.703125 21.609375 
C 2.703125 8.609375 12.203125 -1 22.796875 -1 
C 34 -1 38.40625 9.484375 38.40625 11.5625 
C 38.40625 12.25 37.796875 12.25 37.59375 12.25 
C 36.90625 12.25 36.796875 12.046875 36.40625 10.875 
C 34.203125 4.140625 28.703125 0.796875 23.5 0.796875 
C 19.203125 0.796875 14.90625 3.171875 12.203125 7.5 
C 9.09375 12.546875 9.09375 18.375 9.09375 23 
z
M 9.203125 24.5 
C 9.90625 39.140625 17.59375 42.40625 21.59375 42.40625 
C 28.40625 42.40625 33 35.890625 33.09375 24.5 
z
" id="CMR17-101"/>
       <path d="M 41.5 30.203125 
C 41.5 35.296875 40.5 43.59375 28.703125 43.59375 
C 20.796875 43.59375 16.703125 37.5 15.203125 33.5 
L 15.09375 33.5 
L 15.09375 43.59375 
L 3.296875 42.5 
L 3.296875 39.90625 
C 9.203125 39.90625 10.09375 39.296875 10.09375 34.5 
L 10.09375 6.6875 
C 10.09375 2.875 9.703125 2.390625 3.296875 2.390625 
L 3.296875 -0.203125 
C 5.703125 0 10.09375 0 12.703125 0 
C 15.296875 0 19.796875 0 22.203125 -0.203125 
L 22.203125 2.390625 
C 15.796875 2.390625 15.40625 2.78125 15.40625 6.6875 
L 15.40625 25.90625 
C 15.40625 35.109375 21 42 28 42 
C 35.40625 42 36.203125 35.40625 36.203125 30.59375 
L 36.203125 6.6875 
C 36.203125 2.875 35.796875 2.390625 29.40625 2.390625 
L 29.40625 -0.203125 
C 31.796875 0 36.203125 0 38.796875 0 
C 41.40625 0 45.90625 0 48.296875 -0.203125 
L 48.296875 2.390625 
C 41.90625 2.390625 41.5 2.78125 41.5 6.6875 
z
" id="CMR17-110"/>
       <path d="M 36 25.828125 
C 36 32.375 36 35.84375 31.796875 39.734375 
C 28.09375 43 23.796875 44 20.40625 44 
C 12.5 44 6.796875 37.609375 6.796875 30.796875 
C 6.796875 27 9.796875 27 10.40625 27 
C 11.703125 27 14 27.78125 14 30.53125 
C 14 33 12.09375 34.078125 10.40625 34.078125 
C 10 34.078125 9.5 33.96875 9.203125 33.875 
C 11.296875 40.5 16.703125 42.40625 20.203125 42.40625 
C 25.203125 42.40625 30.703125 37.953125 30.703125 29.453125 
L 30.703125 25 
C 24.796875 25 17.703125 24.203125 12.09375 21.203125 
C 5.796875 17.703125 4 12.703125 4 8.90625 
C 4 1.203125 13 -1 18.296875 -1 
C 23.796875 -1 28.90625 2.171875 31.09375 7.984375 
C 31.296875 3.640625 34.09375 -0.28125 38.5 -0.28125 
C 40.59375 -0.28125 45.90625 1.09375 45.90625 8.859375 
L 45.90625 14.375 
L 44.09375 14.375 
L 44.09375 8.78125 
C 44.09375 2.78125 41.40625 2 40.09375 2 
C 36 2 36 7.15625 36 11.53125 
z
M 30.703125 13.59375 
C 30.703125 4.953125 24.5 0.59375 19 0.59375 
C 14 0.59375 10.09375 4.296875 10.09375 8.90625 
C 10.09375 11.890625 11.40625 17.1875 17.203125 20.390625 
C 22 23.09375 27.5 23.5 30.703125 23.5 
z
" id="CMR17-97"/>
       <path d="M 36.296875 68.40625 
C 35.796875 69.703125 35.59375 70 34.59375 70 
C 33.59375 70 33.40625 69.703125 32.90625 68.40625 
L 11.703125 8.84375 
C 9.796875 3.484375 5.796875 2.390625 2.296875 2.390625 
L 2.296875 -0.203125 
C 4.09375 0 8.09375 0 10 0 
C 12.5 0 16.5 0 18.90625 -0.203125 
L 18.90625 2.390625 
C 14.203125 2.390625 13.5 5.640625 13.5 6.859375 
C 13.5 7.765625 13.703125 8.28125 13.90625 8.890625 
L 19.203125 24 
L 45.40625 24 
L 51.40625 6.90625 
C 51.90625 5.703125 51.90625 5.5 51.90625 5.109375 
C 51.90625 2.390625 47.59375 2.390625 45.703125 2.390625 
L 45.703125 0 
C 48.59375 0 53.796875 0 56.90625 0 
C 59.5 0 64.5 0 66.90625 -0.203125 
L 66.90625 2.390625 
C 61.59375 2.390625 59.796875 2.390625 58.5 6.046875 
z
M 32.296875 60.828125 
L 44.5 26.59375 
L 20.09375 26.59375 
z
" id="CMR17-65"/>
       <path d="M 26 23.078125 
C 29 26.96875 32.40625 31.34375 35.203125 34.625 
C 38.5 38.40625 42.296875 40 46.703125 40 
L 46.703125 42.59375 
C 45 42.59375 41.5 42.59375 39.703125 42.59375 
C 37 42.59375 33.90625 42.59375 31.59375 42.6875 
L 31.59375 40.09375 
C 33 39.890625 33.796875 38.890625 33.796875 37.5 
C 33.796875 35.703125 32.796875 34.609375 32.296875 33.921875 
L 24.90625 24.578125 
L 16.09375 36.03125 
C 15.203125 37.125 15.203125 37.3125 15.203125 37.8125 
C 15.203125 39.015625 16.203125 40 17.90625 40 
L 17.90625 42.6875 
C 15.5 42.59375 11.203125 42.59375 8.703125 42.59375 
C 6 42.59375 2.796875 42.59375 0.59375 42.6875 
L 0.59375 40 
C 6 40 7.203125 39.59375 9.59375 36.609375 
L 21.09375 21.796875 
C 21.296875 21.59375 21.796875 21 21.796875 20.703125 
C 21.796875 20.296875 13.09375 9.671875 12 8.28125 
C 7.5 2.890625 2.796875 2.5 0.09375 2.5 
L 0.09375 0 
C 1.796875 0 5.296875 0 7.09375 0 
C 9.09375 0 13.5 0 15.296875 -0.09375 
L 15.296875 2.5 
C 14.703125 2.59375 13.09375 2.796875 13.09375 5.078125 
C 13.09375 6.875 13.90625 7.96875 14.796875 9.15625 
L 23.09375 19.3125 
L 31.796875 8 
C 32.59375 6.90625 33.796875 5.40625 33.796875 4.703125 
C 33.796875 3.296875 32.59375 2.5 31 2.5 
L 31 -0.09375 
C 33.40625 0 37.703125 0 40.203125 0 
C 42.90625 0 46.09375 0 48.296875 -0.09375 
L 48.296875 2.5 
C 43.296875 2.5 41.796875 2.6875 39.40625 5.78125 
z
" id="CMR17-120"/>
       <path d="M 15.5 61.078125 
C 15.5 63.265625 13.703125 65.15625 11.40625 65.15625 
C 9.203125 65.15625 7.296875 63.375 7.296875 61.078125 
C 7.296875 58.890625 9.09375 57 11.40625 57 
C 13.59375 57 15.5 58.796875 15.5 61.078125 
z
M 3.796875 42.28125 
L 3.796875 39.703125 
C 9.40625 39.703125 10.203125 39.09375 10.203125 34.328125 
L 10.203125 6.671875 
C 10.203125 2.875 9.796875 2.390625 3.40625 2.390625 
L 3.40625 -0.203125 
C 5.796875 0 10.09375 0 12.59375 0 
C 15 0 19.09375 0 21.40625 -0.203125 
L 21.40625 2.390625 
C 15.5 2.390625 15.296875 2.984375 15.296875 6.5625 
L 15.296875 43.375 
z
" id="CMR17-105"/>
       <path d="M 15.296875 68.6875 
L 3.40625 67.59375 
L 3.40625 65 
C 9.296875 65 10.203125 64.40625 10.203125 59.640625 
L 10.203125 6.65625 
C 10.203125 2.875 9.796875 2.390625 3.40625 2.390625 
L 3.40625 -0.203125 
C 5.796875 0 10.203125 0 12.703125 0 
C 15.296875 0 19.703125 0 22.09375 -0.203125 
L 22.09375 2.390625 
C 15.703125 2.390625 15.296875 2.78125 15.296875 6.65625 
z
" id="CMR17-108"/>
       <path d="M 47.40625 40.71875 
C 44.203125 40.109375 43 37.71875 43 35.828125 
C 43 33.421875 44.90625 32.625 46.296875 32.625 
C 49.296875 32.625 51.40625 35.21875 51.40625 37.921875 
C 51.40625 42.109375 46.59375 44 42.40625 44 
C 36.296875 44 32.90625 38.015625 32 36.125 
C 29.703125 44 23.5 44 21.703125 44 
C 11.5 44 6.09375 30.9375 6.09375 28.734375 
C 6.09375 28.34375 6.5 27.84375 7.203125 27.84375 
C 8 27.84375 8.203125 28.4375 8.40625 28.84375 
C 11.796875 39.921875 18.5 42.015625 21.40625 42.015625 
C 25.90625 42.015625 26.796875 37.8125 26.796875 35.421875 
C 26.796875 33.234375 26.203125 30.9375 25 26.140625 
L 21.59375 12.46875 
C 20.09375 6.484375 17.203125 1 11.90625 1 
C 11.40625 1 8.90625 1 6.796875 2.296875 
C 10.40625 3 11.203125 5.984375 11.203125 7.1875 
C 11.203125 9.1875 9.703125 10.375 7.796875 10.375 
C 5.40625 10.375 2.796875 8.28125 2.796875 5.09375 
C 2.796875 0.890625 7.5 -1 11.796875 -1 
C 16.59375 -1 20 2.796875 22.09375 6.890625 
C 23.703125 1 28.703125 -1 32.40625 -1 
C 42.59375 -1 48 12.078125 48 14.265625 
C 48 14.765625 47.59375 15.171875 47 15.171875 
C 46.09375 15.171875 46 14.671875 45.703125 13.875 
C 43 5.09375 37.203125 1 32.703125 1 
C 29.203125 1 27.296875 3.59375 27.296875 7.6875 
C 27.296875 9.875 27.703125 11.46875 29.296875 18.0625 
L 32.796875 31.625 
C 34.296875 37.625 37.703125 42.015625 42.296875 42.015625 
C 42.5 42.015625 45.296875 42.015625 47.40625 40.71875 
z
" id="CMMI12-120"/>
       <path d="M 30.59375 -24.390625 
C 30.59375 -24.296875 30.59375 -24.09375 30.296875 -23.796875 
C 25.703125 -19.125 13.40625 -6.359375 13.40625 24.703125 
C 13.40625 55.765625 25.5 68.421875 30.40625 73.390625 
C 30.40625 73.5 30.59375 73.703125 30.59375 74 
C 30.59375 74.296875 30.296875 74.5 29.90625 74.5 
C 28.796875 74.5 20.296875 67.125 15.40625 56.15625 
C 10.40625 45.109375 9 34.359375 9 24.8125 
C 9 17.625 9.703125 5.484375 15.703125 -7.359375 
C 20.5 -17.734375 28.703125 -25 29.90625 -25 
C 30.40625 -25 30.59375 -24.796875 30.59375 -24.390625 
z
" id="CMR17-40"/>
       <path d="M 67.59375 30.203125 
C 67.59375 35.1875 66.703125 43.59375 54.796875 43.59375 
C 48 43.59375 43.296875 39 41.5 33.609375 
L 41.40625 33.609375 
C 40.203125 41.8125 34.296875 43.59375 28.703125 43.59375 
C 20.796875 43.59375 16.703125 37.5 15.203125 33.5 
L 15.09375 33.5 
L 15.09375 43.59375 
L 3.296875 42.5 
L 3.296875 39.90625 
C 9.203125 39.90625 10.09375 39.296875 10.09375 34.5 
L 10.09375 6.6875 
C 10.09375 2.875 9.703125 2.390625 3.296875 2.390625 
L 3.296875 -0.203125 
C 5.703125 0 10.09375 0 12.703125 0 
C 15.296875 0 19.796875 0 22.203125 -0.203125 
L 22.203125 2.390625 
C 15.796875 2.390625 15.40625 2.78125 15.40625 6.6875 
L 15.40625 25.90625 
C 15.40625 35.109375 21 42 28 42 
C 35.40625 42 36.203125 35.40625 36.203125 30.59375 
L 36.203125 6.6875 
C 36.203125 2.875 35.796875 2.390625 29.40625 2.390625 
L 29.40625 -0.203125 
C 31.796875 0 36.203125 0 38.796875 0 
C 41.40625 0 45.90625 0 48.296875 -0.203125 
L 48.296875 2.390625 
C 41.90625 2.390625 41.5 2.78125 41.5 6.6875 
L 41.5 25.90625 
C 41.5 35.109375 47.09375 42 54.09375 42 
C 61.5 42 62.296875 35.40625 62.296875 30.59375 
L 62.296875 6.6875 
C 62.296875 2.875 61.90625 2.390625 55.5 2.390625 
L 55.5 -0.203125 
C 57.90625 0 62.296875 0 64.90625 0 
C 67.5 0 72 0 74.40625 -0.203125 
L 74.40625 2.390625 
C 68 2.390625 67.59375 2.78125 67.59375 6.6875 
z
" id="CMR17-109"/>
       <path d="M 26.296875 24.703125 
C 26.296875 31.875 25.59375 44.015625 19.59375 56.859375 
C 14.796875 67.234375 6.59375 74.5 5.40625 74.5 
C 5.09375 74.5 4.703125 74.390625 4.703125 73.890625 
C 4.703125 73.703125 4.796875 73.59375 4.90625 73.390625 
C 9.703125 68.40625 21.90625 55.75 21.90625 24.75 
C 21.90625 -6.359375 9.796875 -19.015625 4.90625 -24.015625 
C 4.796875 -24.203125 4.703125 -24.3125 4.703125 -24.5 
C 4.703125 -25 5.09375 -25 5.40625 -25 
C 6.5 -25 15 -17.625 19.90625 -6.65625 
C 24.90625 4.390625 26.296875 15.140625 26.296875 24.703125 
z
" id="CMR17-41"/>
      </defs>
      <use transform="scale(0.996264)" xlink:href="#CMR17-67"/>
      <use transform="translate(66.509881 0)scale(0.996264)" xlink:href="#CMR17-111"/>
      <use transform="translate(114.802796 0)scale(0.996264)" xlink:href="#CMR17-111"/>
      <use transform="translate(160.493274 0)scale(0.996264)" xlink:href="#CMR17-114"/>
      <use transform="translate(195.774041 0)scale(0.996264)" xlink:href="#CMR17-100"/>
      <use transform="translate(246.669411 0)scale(0.996264)" xlink:href="#CMR17-101"/>
      <use transform="translate(287.155072 0)scale(0.996264)" xlink:href="#CMR17-110"/>
      <use transform="translate(338.050441 0)scale(0.996264)" xlink:href="#CMR17-97"/>
      <use transform="translate(383.740918 0)scale(0.996264)" xlink:href="#CMR17-100"/>
      <use transform="translate(434.636288 0)scale(0.996264)" xlink:href="#CMR17-97"/>
      <use transform="translate(510.402732 0)scale(0.996264)" xlink:href="#CMR17-65"/>
      <use transform="translate(579.475162 0)scale(0.996264)" xlink:href="#CMR17-120"/>
      <use transform="translate(627.768077 0)scale(0.996264)" xlink:href="#CMR17-105"/>
      <use transform="translate(652.639136 0)scale(0.996264)" xlink:href="#CMR17-97"/>
      <use transform="translate(698.329613 0)scale(0.996264)" xlink:href="#CMR17-108"/>
      <use transform="translate(753.276638 0)scale(0.996264)" xlink:href="#CMMI12-120"/>
      <use transform="translate(838.786664 0)scale(0.996264)" xlink:href="#CMR17-40"/>
      <use transform="translate(874.067431 0)scale(0.996264)" xlink:href="#CMR17-109"/>
      <use transform="translate(950.987021 0)scale(0.996264)" xlink:href="#CMR17-109"/>
      <use transform="translate(1027.906611 0)scale(0.996264)" xlink:href="#CMR17-41"/>
     </g>
    </g>
   </g>
   <g id="matplotlib.axis_2">
    <g id="ytick_1">
     <g id="line2d_74">
      <path clip-path="url(#pdb5ca1e0e8)" d="M 46.297021 225.36 
L 715.897021 225.36 
" style="fill:none;stroke:#000000;stroke-dasharray:0.5,0.825;stroke-dashoffset:0;stroke-opacity:0.5;stroke-width:0.5;"/>
     </g>
     <g id="line2d_75">
      <defs>
       <path d="M 0 0 
L 3 0 
" id="m89b862ff9a" style="stroke:#000000;stroke-width:0.5;"/>
      </defs>
      <g>
       <use style="stroke:#000000;stroke-width:0.5;" x="46.297021" xlink:href="#m89b862ff9a" y="225.36"/>
      </g>
     </g>
     <g id="line2d_76">
      <defs>
       <path d="M 0 0 
L -3 0 
" id="m570827eae0" style="stroke:#000000;stroke-width:0.5;"/>
      </defs>
      <g>
       <use style="stroke:#000000;stroke-width:0.5;" x="715.897021" xlink:href="#m570827eae0" y="225.36"/>
      </g>
     </g>
     <g id="text_9">
      <!-- $\mathdefault{0.0}$ -->
      <g transform="translate(22.655739 231.240726)scale(0.17 -0.17)">
       <defs>
        <path d="M 18.40625 4.796875 
C 18.40625 7.6875 16 9.671875 13.59375 9.671875 
C 10.703125 9.671875 8.703125 7.28125 8.703125 4.890625 
C 8.703125 2 11.09375 0 13.5 0 
C 16.40625 0 18.40625 2.390625 18.40625 4.796875 
z
" id="CMMI12-58"/>
       </defs>
       <use transform="scale(0.996264)" xlink:href="#CMR17-48"/>
       <use transform="translate(45.690477 0)scale(0.996264)" xlink:href="#CMMI12-58"/>
       <use transform="translate(72.787654 0)scale(0.996264)" xlink:href="#CMR17-48"/>
      </g>
     </g>
    </g>
    <g id="ytick_2">
     <g id="line2d_77">
      <path clip-path="url(#pdb5ca1e0e8)" d="M 46.297021 182.713846 
L 715.897021 182.713846 
" style="fill:none;stroke:#000000;stroke-dasharray:0.5,0.825;stroke-dashoffset:0;stroke-opacity:0.5;stroke-width:0.5;"/>
     </g>
     <g id="line2d_78">
      <g>
       <use style="stroke:#000000;stroke-width:0.5;" x="46.297021" xlink:href="#m89b862ff9a" y="182.713846"/>
      </g>
     </g>
     <g id="line2d_79">
      <g>
       <use style="stroke:#000000;stroke-width:0.5;" x="715.897021" xlink:href="#m570827eae0" y="182.713846"/>
      </g>
     </g>
     <g id="text_10">
      <!-- $\mathdefault{0.5}$ -->
      <g transform="translate(22.655739 188.594572)scale(0.17 -0.17)">
       <use transform="scale(0.996264)" xlink:href="#CMR17-48"/>
       <use transform="translate(45.690477 0)scale(0.996264)" xlink:href="#CMMI12-58"/>
       <use transform="translate(72.787654 0)scale(0.996264)" xlink:href="#CMR17-53"/>
      </g>
     </g>
    </g>
    <g id="ytick_3">
     <g id="line2d_80">
      <path clip-path="url(#pdb5ca1e0e8)" d="M 46.297021 140.067692 
L 715.897021 140.067692 
" style="fill:none;stroke:#000000;stroke-dasharray:0.5,0.825;stroke-dashoffset:0;stroke-opacity:0.5;stroke-width:0.5;"/>
     </g>
     <g id="line2d_81">
      <g>
       <use style="stroke:#000000;stroke-width:0.5;" x="46.297021" xlink:href="#m89b862ff9a" y="140.067692"/>
      </g>
     </g>
     <g id="line2d_82">
      <g>
       <use style="stroke:#000000;stroke-width:0.5;" x="715.897021" xlink:href="#m570827eae0" y="140.067692"/>
      </g>
     </g>
     <g id="text_11">
      <!-- $\mathdefault{1.0}$ -->
      <g transform="translate(22.655739 145.948418)scale(0.17 -0.17)">
       <use transform="scale(0.996264)" xlink:href="#CMR17-49"/>
       <use transform="translate(45.690477 0)scale(0.996264)" xlink:href="#CMMI12-58"/>
       <use transform="translate(72.787654 0)scale(0.996264)" xlink:href="#CMR17-48"/>
      </g>
     </g>
    </g>
    <g id="ytick_4">
     <g id="line2d_83">
      <path clip-path="url(#pdb5ca1e0e8)" d="M 46.297021 97.421538 
L 715.897021 97.421538 
" style="fill:none;stroke:#000000;stroke-dasharray:0.5,0.825;stroke-dashoffset:0;stroke-opacity:0.5;stroke-width:0.5;"/>
     </g>
     <g id="line2d_84">
      <g>
       <use style="stroke:#000000;stroke-width:0.5;" x="46.297021" xlink:href="#m89b862ff9a" y="97.421538"/>
      </g>
     </g>
     <g id="line2d_85">
      <g>
       <use style="stroke:#000000;stroke-width:0.5;" x="715.897021" xlink:href="#m570827eae0" y="97.421538"/>
      </g>
     </g>
     <g id="text_12">
      <!-- $\mathdefault{1.5}$ -->
      <g transform="translate(22.655739 103.302264)scale(0.17 -0.17)">
       <use transform="scale(0.996264)" xlink:href="#CMR17-49"/>
       <use transform="translate(45.690477 0)scale(0.996264)" xlink:href="#CMMI12-58"/>
       <use transform="translate(72.787654 0)scale(0.996264)" xlink:href="#CMR17-53"/>
      </g>
     </g>
    </g>
    <g id="ytick_5">
     <g id="line2d_86">
      <path clip-path="url(#pdb5ca1e0e8)" d="M 46.297021 54.775385 
L 715.897021 54.775385 
" style="fill:none;stroke:#000000;stroke-dasharray:0.5,0.825;stroke-dashoffset:0;stroke-opacity:0.5;stroke-width:0.5;"/>
     </g>
     <g id="line2d_87">
      <g>
       <use style="stroke:#000000;stroke-width:0.5;" x="46.297021" xlink:href="#m89b862ff9a" y="54.775385"/>
      </g>
     </g>
     <g id="line2d_88">
      <g>
       <use style="stroke:#000000;stroke-width:0.5;" x="715.897021" xlink:href="#m570827eae0" y="54.775385"/>
      </g>
     </g>
     <g id="text_13">
      <!-- $\mathdefault{2.0}$ -->
      <g transform="translate(22.655739 60.656111)scale(0.17 -0.17)">
       <use transform="scale(0.996264)" xlink:href="#CMR17-50"/>
       <use transform="translate(45.690477 0)scale(0.996264)" xlink:href="#CMMI12-58"/>
       <use transform="translate(72.787654 0)scale(0.996264)" xlink:href="#CMR17-48"/>
      </g>
     </g>
    </g>
    <g id="ytick_6">
     <g id="line2d_89">
      <path clip-path="url(#pdb5ca1e0e8)" d="M 46.297021 12.129231 
L 715.897021 12.129231 
" style="fill:none;stroke:#000000;stroke-dasharray:0.5,0.825;stroke-dashoffset:0;stroke-opacity:0.5;stroke-width:0.5;"/>
     </g>
     <g id="line2d_90">
      <g>
       <use style="stroke:#000000;stroke-width:0.5;" x="46.297021" xlink:href="#m89b862ff9a" y="12.129231"/>
      </g>
     </g>
     <g id="line2d_91">
      <g>
       <use style="stroke:#000000;stroke-width:0.5;" x="715.897021" xlink:href="#m570827eae0" y="12.129231"/>
      </g>
     </g>
     <g id="text_14">
      <!-- $\mathdefault{2.5}$ -->
      <g transform="translate(22.655739 18.009957)scale(0.17 -0.17)">
       <use transform="scale(0.996264)" xlink:href="#CMR17-50"/>
       <use transform="translate(45.690477 0)scale(0.996264)" xlink:href="#CMMI12-58"/>
       <use transform="translate(72.787654 0)scale(0.996264)" xlink:href="#CMR17-53"/>
      </g>
     </g>
    </g>
    <g id="ytick_7">
     <g id="line2d_92">
      <defs>
       <path d="M 0 0 
L 1.5 0 
" id="mba13f0897d" style="stroke:#000000;stroke-width:0.5;"/>
      </defs>
      <g>
       <use style="stroke:#000000;stroke-width:0.5;" x="46.297021" xlink:href="#mba13f0897d" y="216.830769"/>
      </g>
     </g>
     <g id="line2d_93">
      <defs>
       <path d="M 0 0 
L -1.5 0 
" id="mb2273f7fe2" style="stroke:#000000;stroke-width:0.5;"/>
      </defs>
      <g>
       <use style="stroke:#000000;stroke-width:0.5;" x="715.897021" xlink:href="#mb2273f7fe2" y="216.830769"/>
      </g>
     </g>
    </g>
    <g id="ytick_8">
     <g id="line2d_94">
      <g>
       <use style="stroke:#000000;stroke-width:0.5;" x="46.297021" xlink:href="#mba13f0897d" y="208.301538"/>
      </g>
     </g>
     <g id="line2d_95">
      <g>
       <use style="stroke:#000000;stroke-width:0.5;" x="715.897021" xlink:href="#mb2273f7fe2" y="208.301538"/>
      </g>
     </g>
    </g>
    <g id="ytick_9">
     <g id="line2d_96">
      <g>
       <use style="stroke:#000000;stroke-width:0.5;" x="46.297021" xlink:href="#mba13f0897d" y="199.772308"/>
      </g>
     </g>
     <g id="line2d_97">
      <g>
       <use style="stroke:#000000;stroke-width:0.5;" x="715.897021" xlink:href="#mb2273f7fe2" y="199.772308"/>
      </g>
     </g>
    </g>
    <g id="ytick_10">
     <g id="line2d_98">
      <g>
       <use style="stroke:#000000;stroke-width:0.5;" x="46.297021" xlink:href="#mba13f0897d" y="191.243077"/>
      </g>
     </g>
     <g id="line2d_99">
      <g>
       <use style="stroke:#000000;stroke-width:0.5;" x="715.897021" xlink:href="#mb2273f7fe2" y="191.243077"/>
      </g>
     </g>
    </g>
    <g id="ytick_11">
     <g id="line2d_100">
      <g>
       <use style="stroke:#000000;stroke-width:0.5;" x="46.297021" xlink:href="#mba13f0897d" y="174.184615"/>
      </g>
     </g>
     <g id="line2d_101">
      <g>
       <use style="stroke:#000000;stroke-width:0.5;" x="715.897021" xlink:href="#mb2273f7fe2" y="174.184615"/>
      </g>
     </g>
    </g>
    <g id="ytick_12">
     <g id="line2d_102">
      <g>
       <use style="stroke:#000000;stroke-width:0.5;" x="46.297021" xlink:href="#mba13f0897d" y="165.655385"/>
      </g>
     </g>
     <g id="line2d_103">
      <g>
       <use style="stroke:#000000;stroke-width:0.5;" x="715.897021" xlink:href="#mb2273f7fe2" y="165.655385"/>
      </g>
     </g>
    </g>
    <g id="ytick_13">
     <g id="line2d_104">
      <g>
       <use style="stroke:#000000;stroke-width:0.5;" x="46.297021" xlink:href="#mba13f0897d" y="157.126154"/>
      </g>
     </g>
     <g id="line2d_105">
      <g>
       <use style="stroke:#000000;stroke-width:0.5;" x="715.897021" xlink:href="#mb2273f7fe2" y="157.126154"/>
      </g>
     </g>
    </g>
    <g id="ytick_14">
     <g id="line2d_106">
      <g>
       <use style="stroke:#000000;stroke-width:0.5;" x="46.297021" xlink:href="#mba13f0897d" y="148.596923"/>
      </g>
     </g>
     <g id="line2d_107">
      <g>
       <use style="stroke:#000000;stroke-width:0.5;" x="715.897021" xlink:href="#mb2273f7fe2" y="148.596923"/>
      </g>
     </g>
    </g>
    <g id="ytick_15">
     <g id="line2d_108">
      <g>
       <use style="stroke:#000000;stroke-width:0.5;" x="46.297021" xlink:href="#mba13f0897d" y="131.538462"/>
      </g>
     </g>
     <g id="line2d_109">
      <g>
       <use style="stroke:#000000;stroke-width:0.5;" x="715.897021" xlink:href="#mb2273f7fe2" y="131.538462"/>
      </g>
     </g>
    </g>
    <g id="ytick_16">
     <g id="line2d_110">
      <g>
       <use style="stroke:#000000;stroke-width:0.5;" x="46.297021" xlink:href="#mba13f0897d" y="123.009231"/>
      </g>
     </g>
     <g id="line2d_111">
      <g>
       <use style="stroke:#000000;stroke-width:0.5;" x="715.897021" xlink:href="#mb2273f7fe2" y="123.009231"/>
      </g>
     </g>
    </g>
    <g id="ytick_17">
     <g id="line2d_112">
      <g>
       <use style="stroke:#000000;stroke-width:0.5;" x="46.297021" xlink:href="#mba13f0897d" y="114.48"/>
      </g>
     </g>
     <g id="line2d_113">
      <g>
       <use style="stroke:#000000;stroke-width:0.5;" x="715.897021" xlink:href="#mb2273f7fe2" y="114.48"/>
      </g>
     </g>
    </g>
    <g id="ytick_18">
     <g id="line2d_114">
      <g>
       <use style="stroke:#000000;stroke-width:0.5;" x="46.297021" xlink:href="#mba13f0897d" y="105.950769"/>
      </g>
     </g>
     <g id="line2d_115">
      <g>
       <use style="stroke:#000000;stroke-width:0.5;" x="715.897021" xlink:href="#mb2273f7fe2" y="105.950769"/>
      </g>
     </g>
    </g>
    <g id="ytick_19">
     <g id="line2d_116">
      <g>
       <use style="stroke:#000000;stroke-width:0.5;" x="46.297021" xlink:href="#mba13f0897d" y="88.892308"/>
      </g>
     </g>
     <g id="line2d_117">
      <g>
       <use style="stroke:#000000;stroke-width:0.5;" x="715.897021" xlink:href="#mb2273f7fe2" y="88.892308"/>
      </g>
     </g>
    </g>
    <g id="ytick_20">
     <g id="line2d_118">
      <g>
       <use style="stroke:#000000;stroke-width:0.5;" x="46.297021" xlink:href="#mba13f0897d" y="80.363077"/>
      </g>
     </g>
     <g id="line2d_119">
      <g>
       <use style="stroke:#000000;stroke-width:0.5;" x="715.897021" xlink:href="#mb2273f7fe2" y="80.363077"/>
      </g>
     </g>
    </g>
    <g id="ytick_21">
     <g id="line2d_120">
      <g>
       <use style="stroke:#000000;stroke-width:0.5;" x="46.297021" xlink:href="#mba13f0897d" y="71.833846"/>
      </g>
     </g>
     <g id="line2d_121">
      <g>
       <use style="stroke:#000000;stroke-width:0.5;" x="715.897021" xlink:href="#mb2273f7fe2" y="71.833846"/>
      </g>
     </g>
    </g>
    <g id="ytick_22">
     <g id="line2d_122">
      <g>
       <use style="stroke:#000000;stroke-width:0.5;" x="46.297021" xlink:href="#mba13f0897d" y="63.304615"/>
      </g>
     </g>
     <g id="line2d_123">
      <g>
       <use style="stroke:#000000;stroke-width:0.5;" x="715.897021" xlink:href="#mb2273f7fe2" y="63.304615"/>
      </g>
     </g>
    </g>
    <g id="ytick_23">
     <g id="line2d_124">
      <g>
       <use style="stroke:#000000;stroke-width:0.5;" x="46.297021" xlink:href="#mba13f0897d" y="46.246154"/>
      </g>
     </g>
     <g id="line2d_125">
      <g>
       <use style="stroke:#000000;stroke-width:0.5;" x="715.897021" xlink:href="#mb2273f7fe2" y="46.246154"/>
      </g>
     </g>
    </g>
    <g id="ytick_24">
     <g id="line2d_126">
      <g>
       <use style="stroke:#000000;stroke-width:0.5;" x="46.297021" xlink:href="#mba13f0897d" y="37.716923"/>
      </g>
     </g>
     <g id="line2d_127">
      <g>
       <use style="stroke:#000000;stroke-width:0.5;" x="715.897021" xlink:href="#mb2273f7fe2" y="37.716923"/>
      </g>
     </g>
    </g>
    <g id="ytick_25">
     <g id="line2d_128">
      <g>
       <use style="stroke:#000000;stroke-width:0.5;" x="46.297021" xlink:href="#mba13f0897d" y="29.187692"/>
      </g>
     </g>
     <g id="line2d_129">
      <g>
       <use style="stroke:#000000;stroke-width:0.5;" x="715.897021" xlink:href="#mb2273f7fe2" y="29.187692"/>
      </g>
     </g>
    </g>
    <g id="ytick_26">
     <g id="line2d_130">
      <g>
       <use style="stroke:#000000;stroke-width:0.5;" x="46.297021" xlink:href="#mba13f0897d" y="20.658462"/>
      </g>
     </g>
     <g id="line2d_131">
      <g>
       <use style="stroke:#000000;stroke-width:0.5;" x="715.897021" xlink:href="#mb2273f7fe2" y="20.658462"/>
      </g>
     </g>
    </g>
    <g id="text_15">
     <!-- Valores Adimensionais -->
     <g transform="translate(15.361452 190.633268)rotate(-90)scale(0.17 -0.17)">
      <defs>
       <path d="M 59 58.515625 
C 59.90625 60.71875 61.5 65 68.203125 65 
L 68.203125 67.6875 
C 65.90625 67.484375 63.296875 67.484375 60.796875 67.484375 
C 58.40625 67.484375 54.296875 67.484375 52 67.6875 
L 52 65 
C 57 65 57.203125 61.5 57.203125 60.90625 
C 57.203125 59.796875 56.90625 59.109375 56.59375 58.3125 
L 36.90625 6.96875 
L 16.296875 60.71875 
C 16 61.421875 15.796875 61.921875 15.796875 62.40625 
C 15.796875 65 19.796875 65 21.90625 65 
L 21.90625 67.484375 
C 18.703125 67.484375 14 67.484375 10.703125 67.484375 
C 8.09375 67.484375 3.40625 67.484375 1 67.6875 
L 1 65 
C 6.796875 65 7.90625 64.609375 9.09375 61.421875 
L 32.90625 -0.40625 
C 33.40625 -1.796875 33.5 -2 34.59375 -2 
C 35.703125 -2 35.796875 -1.796875 36.296875 -0.40625 
z
" id="CMR17-86"/>
       <path d="M 30.90625 42.140625 
C 30.90625 43.953125 30.796875 44.046875 30.203125 44.046875 
C 29.796875 44.046875 29.703125 43.953125 28.5 42.453125 
C 28.203125 42.046875 27.296875 41.03125 27 40.640625 
C 23.796875 44.046875 19.296875 44.046875 17.59375 44.046875 
C 6.5 44.046875 2.5 38.234375 2.5 32.4375 
C 2.5 23.40625 12.703125 21.328125 15.59375 20.703125 
C 21.90625 19.421875 24.09375 19.015625 26.203125 17.203125 
C 27.5 16.015625 29.703125 13.8125 29.703125 10.21875 
C 29.703125 6 27.296875 0.59375 18.09375 0.59375 
C 9.40625 0.59375 6.296875 7.1875 4.5 15.953125 
C 4.203125 17.34375 4.203125 17.453125 3.40625 17.453125 
C 2.59375 17.453125 2.5 17.34375 2.5 15.359375 
L 2.5 0.984375 
C 2.5 -0.796875 2.59375 -0.90625 3.203125 -0.90625 
C 3.703125 -0.90625 3.796875 -0.796875 4.296875 0 
C 4.90625 0.890625 6.40625 3.296875 7 4.3125 
C 9 1.609375 12.5 -1 18.09375 -1 
C 28 -1 33.296875 4.421875 33.296875 12.25 
C 33.296875 17.375 30.59375 20.078125 29.296875 21.28125 
C 26.296875 24.390625 22.796875 25.09375 18.59375 25.890625 
C 13.09375 27.109375 6.09375 28.515625 6.09375 34.640625 
C 6.09375 37.234375 7.5 42.765625 17.59375 42.765625 
C 28.296875 42.765625 28.90625 32.71875 29.09375 29.5 
C 29.203125 29 29.703125 28.890625 30 28.890625 
C 30.90625 28.890625 30.90625 29.203125 30.90625 30.90625 
z
" id="CMR17-115"/>
      </defs>
      <use transform="scale(0.996264)" xlink:href="#CMR17-86"/>
      <use transform="translate(61.265174 0)scale(0.996264)" xlink:href="#CMR17-97"/>
      <use transform="translate(106.955652 0)scale(0.996264)" xlink:href="#CMR17-108"/>
      <use transform="translate(131.82671 0)scale(0.996264)" xlink:href="#CMR17-111"/>
      <use transform="translate(177.517187 0)scale(0.996264)" xlink:href="#CMR17-114"/>
      <use transform="translate(212.797955 0)scale(0.996264)" xlink:href="#CMR17-101"/>
      <use transform="translate(253.283615 0)scale(0.996264)" xlink:href="#CMR17-115"/>
      <use transform="translate(319.160919 0)scale(0.996264)" xlink:href="#CMR17-65"/>
      <use transform="translate(388.233349 0)scale(0.996264)" xlink:href="#CMR17-100"/>
      <use transform="translate(439.128719 0)scale(0.996264)" xlink:href="#CMR17-105"/>
      <use transform="translate(463.999777 0)scale(0.996264)" xlink:href="#CMR17-109"/>
      <use transform="translate(540.919367 0)scale(0.996264)" xlink:href="#CMR17-101"/>
      <use transform="translate(581.405028 0)scale(0.996264)" xlink:href="#CMR17-110"/>
      <use transform="translate(632.300398 0)scale(0.996264)" xlink:href="#CMR17-115"/>
      <use transform="translate(668.101735 0)scale(0.996264)" xlink:href="#CMR17-105"/>
      <use transform="translate(692.972794 0)scale(0.996264)" xlink:href="#CMR17-111"/>
      <use transform="translate(738.663271 0)scale(0.996264)" xlink:href="#CMR17-110"/>
      <use transform="translate(789.558641 0)scale(0.996264)" xlink:href="#CMR17-97"/>
      <use transform="translate(835.249118 0)scale(0.996264)" xlink:href="#CMR17-105"/>
      <use transform="translate(860.120176 0)scale(0.996264)" xlink:href="#CMR17-115"/>
     </g>
    </g>
   </g>
   <g id="line2d_132">
    <path clip-path="url(#pdb5ca1e0e8)" d="M 46.297021 140.067692 
L 51.885601 140.958748 
L 58.024406 142.100626 
L 64.163211 143.426491 
L 70.302017 144.952632 
L 76.440822 146.698011 
L 82.579627 148.683626 
L 95.880372 153.27258 
L 118.389324 160.612917 
L 136.80574 166.723576 
L 151.129618 171.717967 
L 163.407229 176.264708 
L 173.638571 180.316375 
L 181.823644 183.789228 
L 190.008718 187.537115 
L 196.147523 190.586988 
L 202.286328 193.912494 
L 206.378865 196.331828 
L 210.471402 198.96689 
L 214.563939 201.892787 
L 218.656476 205.239168 
L 220.702744 207.142324 
L 222.749012 209.270415 
L 224.152383 210.911011 
L 225.555754 212.764871 
L 227.602023 216.115225 
L 229.648291 221.867099 
L 229.930405 223.913648 
L 229.988783 225.36 
L 229.988783 225.36 
L 715.897021 225.36 
L 715.897021 225.36 
" style="fill:none;stroke:#0c5da5;stroke-linecap:square;stroke-width:2;"/>
   </g>
   <g id="line2d_133">
    <path clip-path="url(#pdb5ca1e0e8)" d="M 46.297021 183.874153 
L 46.884283 183.567487 
L 51.885601 180.881452 
L 55.978138 178.438546 
L 60.070674 175.662199 
L 64.163211 172.420708 
L 66.20948 170.572725 
L 68.255748 168.538192 
L 70.302017 166.287316 
L 72.348285 163.793024 
L 74.394553 161.039299 
L 76.440822 157.982596 
L 78.48709 154.538636 
L 80.533359 150.628897 
L 82.579627 146.159163 
L 84.625895 140.794198 
L 85.64903 139.964861 
L 86.672164 140.112887 
L 89.741566 141.340881 
L 93.834103 142.720227 
L 97.92664 143.856218 
L 104.065445 145.252444 
L 110.20425 146.405268 
L 118.389324 147.708318 
L 130.666934 149.377899 
L 149.08335 151.606348 
L 198.193792 157.253058 
L 210.471402 158.46259 
L 220.702744 159.248542 
L 227.602023 159.586246 
L 234.546132 159.634023 
L 540.09482 159.741809 
L 556.464967 159.92191 
L 566.696309 160.233386 
L 574.881383 160.677451 
L 583.066457 161.340562 
L 589.205262 162.085452 
L 591.25153 162.428143 
L 593.809366 163.231938 
L 594.928349 163.850917 
L 595.333455 164.33455 
L 595.397244 164.703068 
L 595.517303 164.844612 
L 596.346094 165.197644 
L 600.709698 166.688522 
L 608.250566 169.138741 
L 612.343103 170.332733 
L 616.43564 171.285409 
L 626.666982 173.33647 
L 636.898324 175.103223 
L 649.175934 176.922966 
L 661.453544 178.474326 
L 673.731155 179.801324 
L 686.008765 180.925568 
L 700.332644 182.016016 
L 712.610254 182.761452 
L 715.897021 182.905309 
L 715.897021 182.905309 
" style="fill:none;stroke:#00b945;stroke-linecap:square;stroke-width:2;"/>
   </g>
   <g id="line2d_134">
    <path clip-path="url(#pdb5ca1e0e8)" d="M 46.297021 220.588484 
L 55.978138 220.165486 
L 66.20948 219.574074 
L 74.394553 218.875996 
L 78.48709 218.376542 
L 82.579627 217.679116 
L 84.625895 217.205003 
L 86.672164 217.080939 
L 112.250519 216.947823 
L 165.453497 216.640253 
L 216.610207 216.610299 
L 462.336621 216.619173 
L 474.614231 216.479096 
L 486.891842 216.092433 
L 499.169452 215.5013 
L 507.354526 214.916051 
L 515.539599 214.149204 
L 523.724673 213.154557 
L 529.863478 212.18793 
L 536.002283 210.965098 
L 540.09482 209.953138 
L 544.187357 208.745147 
L 548.279894 207.259989 
L 552.372431 205.383358 
L 554.418699 204.265949 
L 556.464967 203.013909 
L 558.511236 201.616953 
L 560.557504 200.066985 
L 562.603773 198.359994 
L 564.650041 196.496248 
L 568.742578 192.33057 
L 572.835115 187.673237 
L 576.927651 182.626441 
L 581.020188 177.179137 
L 585.112725 171.12982 
L 587.158993 167.777242 
L 589.205262 164.110809 
L 591.25153 159.915089 
L 593.809366 152.388136 
L 594.749697 148.135747 
L 595.196326 144.946994 
L 595.350902 143.04411 
L 595.517303 139.709901 
L 596.346094 135.423828 
L 603.3471 102.761209 
L 606.616077 87.948725 
L 608.250566 80.888303 
L 610.296834 72.712014 
L 612.343103 65.705092 
L 614.389371 60.234371 
L 616.43564 56.139937 
L 618.481908 52.936414 
L 620.528176 50.228305 
L 622.574445 47.919004 
L 624.620713 46.110695 
L 628.71325 43.009838 
L 636.898324 35.564265 
L 645.083397 29.61617 
L 649.175934 26.835054 
L 653.268471 24.35227 
L 659.407276 20.902756 
L 663.499813 18.953368 
L 673.731155 14.564405 
L 677.823692 13.035978 
L 681.916228 11.698633 
L 686.008765 10.547892 
L 696.240107 8.129594 
L 704.425181 6.540045 
L 708.517718 6.063531 
L 712.610254 5.909005 
L 714.656523 5.878093 
L 715.897021 6.37558 
L 715.897021 6.37558 
" style="fill:none;stroke:#ff9500;stroke-linecap:square;stroke-width:2;"/>
   </g>
   <g id="patch_3">
    <path d="M 46.297021 225.36 
L 46.297021 3.6 
" style="fill:none;stroke:#000000;stroke-linecap:square;stroke-linejoin:miter;stroke-width:0.5;"/>
   </g>
   <g id="patch_4">
    <path d="M 715.897021 225.36 
L 715.897021 3.6 
" style="fill:none;stroke:#000000;stroke-linecap:square;stroke-linejoin:miter;stroke-width:0.5;"/>
   </g>
   <g id="patch_5">
    <path d="M 46.297021 225.36 
L 715.897021 225.36 
" style="fill:none;stroke:#000000;stroke-linecap:square;stroke-linejoin:miter;stroke-width:0.5;"/>
   </g>
   <g id="patch_6">
    <path d="M 46.297021 3.6 
L 715.897021 3.6 
" style="fill:none;stroke:#000000;stroke-linecap:square;stroke-linejoin:miter;stroke-width:0.5;"/>
   </g>
   <g id="legend_1">
    <g id="patch_7">
     <path d="M 58.197021 91.767263 
L 342.280401 91.767263 
Q 345.680401 91.767263 345.680401 88.367263 
L 345.680401 15.5 
Q 345.680401 12.1 342.280401 12.1 
L 58.197021 12.1 
Q 54.797021 12.1 54.797021 15.5 
L 54.797021 88.367263 
Q 54.797021 91.767263 58.197021 91.767263 
z
" style="fill:#ffffff;stroke:#cccccc;stroke-linejoin:miter;"/>
    </g>
    <g id="line2d_135">
     <path d="M 61.597021 25.652366 
L 95.597021 25.652366 
" style="fill:none;stroke:#0c5da5;stroke-linecap:square;stroke-width:2;"/>
    </g>
    <g id="line2d_136"/>
    <g id="text_16">
     <!-- Dimetro de Gotculas $D/SMD_0$ -->
     <g transform="translate(109.197021 31.602366)scale(0.17 -0.17)">
      <defs>
       <path d="M 5.203125 68 
L 5.203125 65.40625 
C 12.09375 65.40625 13.203125 65.40625 13.203125 60.9375 
L 13.203125 7.0625 
C 13.203125 2.59375 12.09375 2.59375 5.203125 2.59375 
L 5.203125 0 
L 37 0 
C 53.09375 0 66 14.734375 66 33.453125 
C 66 52.28125 53.296875 68 37 68 
z
M 23.796875 2.59375 
C 19.796875 2.59375 19.59375 3.078125 19.59375 6.46875 
L 19.59375 61.53125 
C 19.59375 64.921875 19.796875 65.40625 23.796875 65.40625 
L 35 65.40625 
C 43.296875 65.40625 58.59375 60.53125 58.59375 33.453125 
C 58.59375 19.40625 54.5 13.734375 52.59375 11.046875 
C 50.203125 7.96875 44.5 2.59375 35 2.59375 
z
" id="CMR17-68"/>
       <path d="M 22.90625 69.078125 
L 10.59375 55.546875 
L 11.796875 54.34375 
L 22.90625 65.09375 
L 34 54.34375 
L 35.203125 55.546875 
z
" id="CMR17-94"/>
       <path d="M 15.09375 40 
L 29.09375 40 
L 29.09375 42.578125 
L 15.09375 42.578125 
L 15.09375 61 
L 13.296875 61 
C 13.09375 50.703125 9.59375 41.6875 1.09375 41.6875 
L 1.09375 40 
L 9.796875 40 
L 9.796875 12.046875 
C 9.796875 10.15625 9.796875 -1 21.40625 -1 
C 27.296875 -1 30.703125 4.78125 30.703125 12.140625 
L 30.703125 17.8125 
L 28.90625 17.8125 
L 28.90625 12.234375 
C 28.90625 5.375 26.203125 0.796875 22 0.796875 
C 19.09375 0.796875 15.09375 2.78125 15.09375 11.84375 
z
" id="CMR17-116"/>
       <path d="M 62.09375 19.265625 
C 62.09375 23.015625 62.40625 23.515625 68.59375 23.515625 
L 68.59375 26.09375 
C 66.203125 26 60.796875 26 58.09375 26 
C 55.296875 26 47.5 26 43.703125 26 
L 43.703125 23.515625 
L 46.703125 23.515625 
C 55.296875 23.515625 55.5 22.40625 55.5 18.765625 
L 55.5 12.09375 
C 55.5 0.984375 42.5 0.984375 39.40625 0.984375 
C 29.09375 0.984375 12.203125 7.984375 12.203125 33.75 
C 12.203125 59.5 28.796875 66.40625 38.5 66.40625 
C 49.796875 66.40625 58 56.65625 59.90625 42.828125 
C 60.09375 41.625 60.09375 41.421875 61 41.421875 
C 62.09375 41.421875 62.09375 41.625 62.09375 43.421875 
L 62.09375 67 
C 62.09375 68.78125 62 68.890625 61.40625 68.890625 
C 61 68.890625 60.90625 68.78125 60.203125 67.59375 
L 55.796875 59.234375 
C 50.90625 65.421875 44.90625 69 37.203125 69 
C 20.09375 69 4.59375 54 4.59375 33.5625 
C 4.59375 13.203125 19.796875 -2 37.40625 -2 
C 45.5 -2 53.40625 0.875 56.5 6.515625 
C 58.203125 2.46875 61 -0.3125 61.5 -0.3125 
C 62 -0.3125 62.09375 -0.203125 62.09375 1.5625 
z
" id="CMR17-71"/>
       <path d="M 34.703125 63.921875 
C 35.90625 65.015625 36.203125 65.21875 36.203125 66.3125 
C 36.203125 67.796875 34.90625 69 33.5 69 
C 32.296875 69 31.90625 68.5 30.90625 67.3125 
L 19.59375 52.96875 
C 18.90625 52.078125 18.90625 51.984375 18.90625 51.875 
C 18.90625 51.78125 19.796875 50.875 20 50.6875 
z
" id="CMR17-19"/>
       <path d="M 15.296875 43.171875 
L 3.796875 42.078125 
L 3.796875 39.5 
C 9.40625 39.5 10.203125 38.890625 10.203125 34.15625 
L 10.203125 6.640625 
C 10.203125 2.875 9.796875 2.390625 3.40625 2.390625 
L 3.40625 -0.203125 
C 5.796875 0 10.09375 0 12.59375 0 
C 15 0 19.09375 0 21.40625 -0.203125 
L 21.40625 2.390625 
C 15.5 2.390625 15.296875 2.984375 15.296875 6.546875 
z
" id="CMR17-16"/>
       <path d="M 34.90625 35 
C 33 35 30.203125 35 30.203125 31.515625 
C 30.203125 28.71875 32.5 27.921875 33.796875 27.921875 
C 34.5 27.921875 37.40625 28.234375 37.40625 31.625 
C 37.40625 38.546875 30.59375 43.796875 22.90625 43.796875 
C 12.296875 43.796875 3.296875 34.03125 3.296875 21.296875 
C 3.296875 8.0625 12.703125 -1 22.90625 -1 
C 35.296875 -1 38.40625 10.578125 38.40625 11.6875 
C 38.40625 12.09375 38.296875 12.390625 37.59375 12.390625 
C 36.90625 12.390625 36.796875 12.296875 36.40625 10.984375 
C 33.796875 2.8125 28.09375 0.796875 23.796875 0.796875 
C 17.40625 0.796875 9.703125 6.671875 9.703125 21.390625 
C 9.703125 36.53125 17.09375 42 23 42 
C 26.90625 42 32.703125 40.203125 34.90625 35 
z
" id="CMR17-99"/>
       <path d="M 29.40625 42.078125 
L 29.40625 39.5 
C 35.296875 39.5 36.203125 38.890625 36.203125 34.15625 
L 36.203125 16.125 
C 36.203125 7.8125 31.703125 0.59375 24.296875 0.59375 
C 16.09375 0.59375 15.40625 5.4375 15.40625 10.59375 
L 15.40625 43.171875 
L 3.296875 42.078125 
L 3.296875 39.5 
C 7.296875 39.5 10 39.5 10.09375 35.53125 
L 10.09375 16.53125 
C 10.09375 9.890625 10.09375 5.640625 12.703125 2.859375 
C 14 1.578125 16.5 -1 23.703125 -1 
C 32.203125 -1 35.5 5.890625 36.296875 7.90625 
L 36.40625 7.90625 
L 36.40625 -0.984375 
L 48.296875 -0.984375 
L 48.296875 2 
C 42.40625 2 41.5 2.59375 41.5 7.390625 
L 41.5 43.171875 
z
" id="CMR17-117"/>
       <path d="M 15.703125 7.375 
C 14.796875 3.890625 14.59375 2.890625 7.59375 2.890625 
C 5.703125 2.890625 4.703125 2.890625 4.703125 1.09375 
C 4.703125 0 5.296875 0 7.296875 0 
L 39 0 
C 59.203125 0 78.90625 20.8125 78.90625 43.015625 
C 78.90625 57.359375 70.296875 68 56 68 
L 23.90625 68 
C 22 68 21.09375 68 21.09375 66.109375 
C 21.09375 65.109375 22 65.109375 23.5 65.109375 
C 29.59375 65.109375 29.59375 64.3125 29.59375 63.21875 
C 29.59375 63.03125 29.59375 62.421875 29.203125 60.921875 
z
M 36.796875 61.421875 
C 37.703125 65.109375 38.09375 65.109375 42 65.109375 
L 53 65.109375 
C 62.40625 65.109375 71 60.03125 71 46.296875 
C 71 41.3125 69 24 59.296875 13.046875 
C 56.5 9.765625 48.90625 2.890625 37.40625 2.890625 
L 26 2.890625 
C 24.59375 2.890625 24.40625 2.890625 23.796875 3 
C 22.703125 3.09375 22.59375 3.296875 22.59375 4.09375 
C 22.59375 4.796875 22.796875 5.390625 23 6.28125 
z
" id="CMMI12-68"/>
       <path d="M 42.90625 71.28125 
C 42.90625 71.390625 43.5 72.90625 43.5 73.09375 
C 43.5 74.296875 42.5 75 41.703125 75 
C 41.203125 75 40.296875 75 39.5 72.796875 
L 6 -21.296875 
C 6 -21.40625 5.40625 -22.890625 5.40625 -23.09375 
C 5.40625 -24.296875 6.40625 -25 7.203125 -25 
C 7.796875 -25 8.703125 -24.890625 9.40625 -22.796875 
z
" id="CMMI12-61"/>
       <path d="M 63.5 69.109375 
C 63.5 70 62.796875 70 62.59375 70 
C 62.203125 70 62.09375 69.90625 60.90625 68.40625 
C 60.296875 67.703125 56.203125 62.515625 56.09375 62.421875 
C 52.796875 68.90625 46.203125 70 42 70 
C 29.296875 70 17.796875 58.484375 17.796875 47.265625 
C 17.796875 39.828125 22.296875 35.453125 27.203125 33.765625 
C 28.296875 33.359375 34.203125 31.765625 37.203125 31.078125 
C 42.296875 29.6875 43.59375 29.296875 45.703125 27.109375 
C 46.09375 26.609375 48.09375 24.328125 48.09375 19.65625 
C 48.09375 10.421875 39.5 0.890625 29.5 0.890625 
C 21.296875 0.890625 12.203125 4.375 12.203125 15.484375 
C 12.203125 17.375 12.59375 19.765625 12.90625 20.75 
C 12.90625 21.0625 13 21.53125 13 21.734375 
C 13 22.140625 12.796875 22.640625 12 22.640625 
C 11.09375 22.640625 11 22.4375 10.59375 20.75 
L 5.5 0.375 
C 5.5 0.28125 5.09375 -1 5.09375 -1.109375 
C 5.09375 -2 5.90625 -2 6.09375 -2 
C 6.5 -2 6.59375 -1.90625 7.796875 -0.40625 
L 12.40625 5.5625 
C 14.796875 1.96875 20 -2 29.296875 -2 
C 42.203125 -2 54 10.40625 54 22.8125 
C 54 27 53 30.671875 49.203125 34.328125 
C 47.09375 36.421875 45.296875 36.921875 36.09375 39.3125 
C 29.40625 41.09375 28.5 41.390625 26.703125 42.984375 
C 25 44.65625 23.703125 47.046875 23.703125 50.421875 
C 23.703125 58.765625 32.203125 67.3125 41.703125 67.3125 
C 51.5 67.3125 56.09375 61.34375 56.09375 51.921875 
C 56.09375 49.34375 55.59375 46.65625 55.59375 46.265625 
C 55.59375 45.359375 56.40625 45.359375 56.703125 45.359375 
C 57.59375 45.359375 57.703125 45.65625 58.09375 47.25 
z
" id="CMMI12-83"/>
       <path d="M 90.796875 60.71875 
C 91.703125 64.109375 91.90625 65.109375 99 65.109375 
C 100.90625 65.109375 101.796875 65.109375 101.796875 67 
C 101.796875 68 101.09375 68 99.203125 68 
L 87.203125 68 
C 84.703125 68 84.59375 67.90625 83.5 66.296875 
L 47 8.78125 
L 39.5 65.796875 
C 39.203125 68 39.09375 68 36.5 68 
L 24.09375 68 
C 22.203125 68 21.296875 68 21.296875 66.109375 
C 21.296875 65.109375 22.203125 65.109375 23.703125 65.109375 
C 29.796875 65.109375 29.796875 64.3125 29.796875 63.21875 
C 29.796875 63.03125 29.796875 62.421875 29.40625 60.921875 
L 16.59375 9.90625 
C 15.40625 5.109375 13.09375 2.90625 6.40625 2.90625 
C 6.09375 2.90625 4.90625 2.90625 4.90625 1.140625 
C 4.90625 0 5.796875 0 6.203125 0 
C 8.203125 0 13.296875 0 15.296875 0 
L 20.09375 0 
C 21.5 0 23.203125 0 24.59375 0 
C 25.296875 0 26.40625 0 26.40625 1.90625 
C 26.40625 2.8125 25.40625 2.90625 25 2.90625 
C 21.703125 2.90625 18.5 3.5 18.5 7.09375 
C 18.5 8.09375 18.5 8.1875 18.90625 9.578125 
L 32.703125 64.515625 
L 32.796875 64.515625 
L 41.09375 2.6875 
C 41.40625 0.296875 41.5 0 42.40625 0 
C 43.5 0 44 0.796875 44.5 1.703125 
L 84.703125 65.015625 
L 84.796875 65.015625 
L 70.296875 7.390625 
C 69.40625 3.90625 69.203125 2.90625 62.203125 2.90625 
C 60.296875 2.90625 59.296875 2.90625 59.296875 1.09375 
C 59.296875 0 60.203125 0 60.796875 0 
C 62.5 0 64.5 0 66.203125 0 
L 78 0 
C 79.703125 0 81.796875 0 83.5 0 
C 84.296875 0 85.40625 0 85.40625 1.90625 
C 85.40625 2.90625 84.5 2.90625 83 2.90625 
C 76.90625 2.90625 76.90625 3.65625 76.90625 4.59375 
C 76.90625 4.703125 76.90625 5.390625 77.09375 6.1875 
z
" id="CMMI12-77"/>
      </defs>
      <use transform="scale(0.996264)" xlink:href="#CMR17-68"/>
      <use transform="translate(70.393556 0)scale(0.996264)" xlink:href="#CMR17-105"/>
      <use transform="translate(95.264614 0)scale(0.996264)" xlink:href="#CMR17-94"/>
      <use transform="translate(95.264614 0)scale(0.996264)" xlink:href="#CMR17-97"/>
      <use transform="translate(140.955092 0)scale(0.996264)" xlink:href="#CMR17-109"/>
      <use transform="translate(217.874681 0)scale(0.996264)" xlink:href="#CMR17-101"/>
      <use transform="translate(258.360342 0)scale(0.996264)" xlink:href="#CMR17-116"/>
      <use transform="translate(293.64111 0)scale(0.996264)" xlink:href="#CMR17-114"/>
      <use transform="translate(328.921877 0)scale(0.996264)" xlink:href="#CMR17-111"/>
      <use transform="translate(404.688321 0)scale(0.996264)" xlink:href="#CMR17-100"/>
      <use transform="translate(455.583691 0)scale(0.996264)" xlink:href="#CMR17-101"/>
      <use transform="translate(526.145317 0)scale(0.996264)" xlink:href="#CMR17-71"/>
      <use transform="translate(598.500663 0)scale(0.996264)" xlink:href="#CMR17-111"/>
      <use transform="translate(644.191141 0)scale(0.996264)" xlink:href="#CMR17-116"/>
      <use transform="translate(669.062199 0)scale(0.996264)" xlink:href="#CMR17-19"/>
      <use transform="translate(679.471908 0)scale(0.996264)" xlink:href="#CMR17-16"/>
      <use transform="translate(704.342967 0)scale(0.996264)" xlink:href="#CMR17-99"/>
      <use transform="translate(744.828627 0)scale(0.996264)" xlink:href="#CMR17-117"/>
      <use transform="translate(795.723997 0)scale(0.996264)" xlink:href="#CMR17-108"/>
      <use transform="translate(820.595056 0)scale(0.996264)" xlink:href="#CMR17-97"/>
      <use transform="translate(866.285533 0)scale(0.996264)" xlink:href="#CMR17-115"/>
      <use transform="translate(932.162837 0)scale(0.996264)" xlink:href="#CMMI12-68"/>
      <use transform="translate(1015.866784 0)scale(0.996264)" xlink:href="#CMMI12-61"/>
      <use transform="translate(1064.641703 0)scale(0.996264)" xlink:href="#CMMI12-83"/>
      <use transform="translate(1130.436142 0)scale(0.996264)" xlink:href="#CMMI12-77"/>
      <use transform="translate(1235.216221 0)scale(0.996264)" xlink:href="#CMMI12-68"/>
      <use transform="translate(1316.210451 -14.943915)scale(0.697382)" xlink:href="#CMR17-48"/>
     </g>
    </g>
    <g id="line2d_137">
     <path d="M 61.597021 51.088854 
L 95.597021 51.088854 
" style="fill:none;stroke:#00b945;stroke-linecap:square;stroke-width:2;"/>
    </g>
    <g id="line2d_138"/>
    <g id="text_17">
     <!-- Temperatura $T/T_{ad}$ -->
     <g transform="translate(109.197021 57.038854)scale(0.17 -0.17)">
      <defs>
       <path d="M 62.203125 67.59375 
L 4.5 67.59375 
L 2.796875 45.59375 
L 4.59375 45.59375 
C 5.90625 62.125 7.296875 65 22.703125 65 
C 24.5 65 27.40625 65 28.203125 64.90625 
C 30.09375 64.609375 30.09375 63.40625 30.09375 61.125 
L 30.09375 7.171875 
C 30.09375 3.59375 29.796875 2.5 21.5 2.5 
L 18.703125 2.5 
L 18.703125 0 
C 23.5 0 28.5 0 33.40625 0 
C 38.296875 0 43.296875 0 48.09375 0 
L 48.09375 2.5 
L 45.296875 2.5 
C 37 2.5 36.703125 3.59375 36.703125 7.171875 
L 36.703125 61.125 
C 36.703125 63.3125 36.703125 64.515625 38.5 64.90625 
C 39.296875 65 42.203125 65 44 65 
C 59.296875 65 60.796875 62.125 62.09375 45.59375 
L 63.90625 45.59375 
z
" id="CMR17-84"/>
       <path d="M 22 -16.609375 
C 15.59375 -16.609375 15.203125 -16.203125 15.203125 -12.328125 
L 15.203125 6.28125 
C 18.09375 2.09375 22.296875 -0.59375 27.59375 -0.59375 
C 37.59375 -0.59375 47.703125 8.171875 47.703125 21.6875 
C 47.703125 34.234375 39 43.78125 28.703125 43.78125 
C 22.703125 43.78125 17.796875 40.5 15 36.53125 
L 15 43.78125 
L 3.09375 42.6875 
L 3.09375 40.109375 
C 9 40.109375 9.90625 39.5 9.90625 34.734375 
L 9.90625 -12.328125 
C 9.90625 -16.109375 9.5 -16.609375 3.09375 -16.609375 
L 3.09375 -19.1875 
C 5.5 -19 9.90625 -19 12.5 -19 
C 15.09375 -19 19.59375 -19 22 -19.1875 
z
M 15.203125 31.4375 
C 15.203125 32.84375 15.203125 34.921875 19.09375 38.609375 
C 19.59375 39.015625 23 42 28 42 
C 35.296875 42 41.296875 32.9375 41.296875 21.59375 
C 41.296875 10.25 34.90625 1 27 1 
C 23.40625 1 19.5 2.6875 16.5 7.375 
C 15.203125 9.5625 15.203125 10.15625 15.203125 11.75 
z
" id="CMR17-112"/>
       <path d="M 41.703125 61.09375 
C 42.296875 63.5 42.5 64.390625 44 64.796875 
C 44.796875 65 48.09375 65 50.203125 65 
C 60.203125 65 64.90625 64.59375 64.90625 56.78125 
C 64.90625 55.265625 64.5 51.484375 63.90625 47.765625 
L 63.796875 46.5625 
C 63.796875 46.15625 64.203125 45.5625 64.796875 45.5625 
C 65.796875 45.5625 65.796875 46.0625 66.09375 47.65625 
L 69 65.375 
C 69.203125 66.296875 69.203125 66.5 69.203125 66.796875 
C 69.203125 67.890625 68.59375 67.890625 66.59375 67.890625 
L 11.90625 67.890625 
C 9.59375 67.890625 9.5 67.796875 8.90625 66 
L 2.796875 47.96875 
C 2.703125 47.75 2.40625 46.65625 2.40625 46.5625 
C 2.40625 46.0625 2.796875 45.5625 3.40625 45.5625 
C 4.203125 45.5625 4.40625 45.953125 4.796875 47.25 
C 9 59.390625 11.09375 65 24.40625 65 
L 31.09375 65 
C 33.5 65 34.5 65 34.5 63.890625 
C 34.5 63.578125 34.5 63.390625 34 61.578125 
L 20.59375 7.796875 
C 19.59375 3.890625 19.40625 2.890625 8.796875 2.890625 
C 6.296875 2.890625 5.59375 2.890625 5.59375 1 
C 5.59375 0 6.703125 0 7.203125 0 
C 9.703125 0 12.296875 0 14.796875 0 
L 30.40625 0 
C 32.90625 0 35.59375 0 38.09375 0 
C 39.203125 0 40.203125 0 40.203125 1.890625 
C 40.203125 2.890625 39.5 2.890625 36.90625 2.890625 
C 27.90625 2.890625 27.90625 3.796875 27.90625 5.296875 
C 27.90625 5.40625 27.90625 6.109375 28.296875 7.71875 
z
" id="CMMI12-84"/>
       <path d="M 30.09375 11.875 
C 29.59375 10.171875 29.59375 9.984375 28.203125 8.078125 
C 26 5.28125 21.59375 1 16.90625 1 
C 12.796875 1 10.5 4.6875 10.5 10.578125 
C 10.5 16.0625 13.59375 27.234375 15.5 31.4375 
C 18.90625 38.421875 23.59375 42.015625 27.5 42.015625 
C 34.09375 42.015625 35.40625 33.828125 35.40625 33.03125 
C 35.40625 32.9375 35.09375 31.625 35 31.4375 
z
M 36.5 37.421875 
C 35.40625 40.015625 32.703125 44 27.5 44 
C 16.203125 44 4 29.4375 4 14.671875 
C 4 4.796875 9.796875 -1 16.59375 -1 
C 22.09375 -1 26.796875 3.296875 29.59375 6.59375 
C 30.59375 0.703125 35.296875 -1 38.296875 -1 
C 41.296875 -1 43.703125 0.796875 45.5 4.390625 
C 47.09375 7.78125 48.5 13.875 48.5 14.265625 
C 48.5 14.765625 48.09375 15.171875 47.5 15.171875 
C 46.59375 15.171875 46.5 14.671875 46.09375 13.171875 
C 44.59375 7.28125 42.703125 1 38.59375 1 
C 35.703125 1 35.5 3.59375 35.5 5.59375 
C 35.5 7.890625 35.796875 8.984375 36.703125 12.875 
C 37.40625 15.375 37.90625 17.5625 38.703125 20.453125 
C 42.40625 35.421875 43.296875 39.015625 43.296875 39.609375 
C 43.296875 41.015625 42.203125 42.109375 40.703125 42.109375 
C 37.5 42.109375 36.703125 38.625 36.5 37.421875 
z
" id="CMMI12-97"/>
       <path d="M 50.296875 66.515625 
C 50.40625 66.90625 50.59375 67.5 50.59375 68 
C 50.59375 69 49.59375 69 49.40625 69 
C 49.296875 69 44.40625 68.5625 43.90625 68.4375 
C 42.203125 68.328125 40.703125 68.09375 38.90625 68.09375 
C 36.40625 67.890625 35.703125 67.796875 35.703125 66 
C 35.703125 65 36.5 65 37.90625 65 
C 42.796875 65 42.90625 64.109375 42.90625 63.125 
C 42.90625 62.53125 42.703125 61.75 42.59375 61.453125 
L 36.5 37.421875 
C 35.40625 40.015625 32.703125 44 27.5 44 
C 16.203125 44 4 29.4375 4 14.671875 
C 4 4.796875 9.796875 -1 16.59375 -1 
C 22.09375 -1 26.796875 3.296875 29.59375 6.59375 
C 30.59375 0.703125 35.296875 -1 38.296875 -1 
C 41.296875 -1 43.703125 0.796875 45.5 4.390625 
C 47.09375 7.78125 48.5 13.875 48.5 14.265625 
C 48.5 14.765625 48.09375 15.171875 47.5 15.171875 
C 46.59375 15.171875 46.5 14.671875 46.09375 13.171875 
C 44.59375 7.28125 42.703125 1 38.59375 1 
C 35.703125 1 35.5 3.578125 35.5 5.578125 
C 35.5 5.96875 35.5 8.046875 36.203125 10.84375 
z
M 30.09375 11.875 
C 29.59375 10.171875 29.59375 9.984375 28.203125 8.078125 
C 26 5.28125 21.59375 1 16.90625 1 
C 12.796875 1 10.5 4.6875 10.5 10.578125 
C 10.5 16.0625 13.59375 27.234375 15.5 31.4375 
C 18.90625 38.421875 23.59375 42.015625 27.5 42.015625 
C 34.09375 42.015625 35.40625 33.828125 35.40625 33.03125 
C 35.40625 32.9375 35.09375 31.625 35 31.4375 
z
" id="CMMI12-100"/>
      </defs>
      <use transform="scale(0.996264)" xlink:href="#CMR17-84"/>
      <use transform="translate(58.702625 0)scale(0.996264)" xlink:href="#CMR17-101"/>
      <use transform="translate(99.188286 0)scale(0.996264)" xlink:href="#CMR17-109"/>
      <use transform="translate(176.107875 0)scale(0.996264)" xlink:href="#CMR17-112"/>
      <use transform="translate(229.605684 0)scale(0.996264)" xlink:href="#CMR17-101"/>
      <use transform="translate(270.091344 0)scale(0.996264)" xlink:href="#CMR17-114"/>
      <use transform="translate(305.372112 0)scale(0.996264)" xlink:href="#CMR17-97"/>
      <use transform="translate(351.062589 0)scale(0.996264)" xlink:href="#CMR17-116"/>
      <use transform="translate(386.343357 0)scale(0.996264)" xlink:href="#CMR17-117"/>
      <use transform="translate(437.238727 0)scale(0.996264)" xlink:href="#CMR17-114"/>
      <use transform="translate(472.519495 0)scale(0.996264)" xlink:href="#CMR17-97"/>
      <use transform="translate(548.285938 0)scale(0.996264)" xlink:href="#CMMI12-84"/>
      <use transform="translate(616.299853 0)scale(0.996264)" xlink:href="#CMMI12-61"/>
      <use transform="translate(665.074771 0)scale(0.996264)" xlink:href="#CMMI12-84"/>
      <use transform="translate(722.249815 -14.943915)scale(0.697382)" xlink:href="#CMMI12-97"/>
      <use transform="translate(758.095162 -14.943915)scale(0.697382)" xlink:href="#CMMI12-100"/>
     </g>
    </g>
    <g id="line2d_139">
     <path d="M 61.597021 75.722976 
L 95.597021 75.722976 
" style="fill:none;stroke:#ff9500;stroke-linecap:square;stroke-width:2;"/>
    </g>
    <g id="line2d_140"/>
    <g id="text_18">
     <!-- Nmero de Mach -->
     <g transform="translate(109.197021 81.672976)scale(0.17 -0.17)">
      <defs>
       <path d="M 20.5 66.40625 
C 19.796875 67.5 19.703125 67.5 17.796875 67.5 
L 5.09375 67.5 
L 5.09375 65 
L 7 65 
C 11 65 12.796875 64.515625 13.09375 64.40625 
L 13.09375 9.53125 
C 13.09375 7.046875 13.09375 2.390625 5.09375 2.390625 
L 5.09375 -0.203125 
C 7.40625 0 11.59375 0 14.09375 0 
C 16.59375 0 20.796875 0 23.09375 -0.203125 
L 23.09375 2.390625 
C 15.09375 2.390625 15.09375 7.046875 15.09375 9.53125 
L 15.09375 63.015625 
C 15.796875 62.421875 15.796875 62.21875 16.5 61.234375 
L 53.59375 1.1875 
C 54.296875 0 54.59375 0 55.09375 0 
C 56.09375 0 56.09375 0.296875 56.09375 2.171875 
L 56.09375 57.890625 
C 56.09375 60.359375 56.09375 65 64.09375 65 
L 64.09375 67.59375 
C 61.796875 67.5 57.59375 67.5 55.09375 67.5 
C 52.59375 67.5 48.40625 67.5 46.09375 67.59375 
L 46.09375 65 
C 54.09375 65 54.09375 60.34375 54.09375 57.859375 
L 54.09375 11.921875 
z
" id="CMR17-78"/>
       <path d="M 20.90625 66 
C 20.296875 67.5 20.203125 67.5 18.09375 67.5 
L 5.296875 67.5 
L 5.296875 65 
C 12.203125 65 13.296875 65 13.296875 60.546875 
L 13.296875 9.53125 
C 13.296875 7.046875 13.296875 2.390625 5.296875 2.390625 
L 5.296875 -0.203125 
C 7.59375 0 11.796875 0 14.296875 0 
C 16.796875 0 21 0 23.296875 -0.203125 
L 23.296875 2.390625 
C 15.296875 2.390625 15.296875 7.046875 15.296875 9.53125 
L 15.296875 64.609375 
L 15.40625 64.609375 
L 38.90625 1.390625 
C 39.296875 0.390625 39.5 -0.203125 40.296875 -0.203125 
C 41.09375 -0.203125 41.296875 0.390625 41.703125 1.390625 
L 65.40625 65.09375 
L 65.5 65.09375 
L 65.5 6.84375 
C 65.5 2.390625 64.40625 2.390625 57.5 2.390625 
L 57.5 -0.203125 
C 60.203125 0 65.59375 0 68.5 0 
C 71.40625 0 76.90625 0 79.59375 -0.203125 
L 79.59375 2.390625 
C 72.703125 2.390625 71.59375 2.390625 71.59375 6.84375 
L 71.59375 60.546875 
C 71.59375 65 72.703125 65 79.59375 65 
L 79.59375 67.5 
L 66.90625 67.5 
C 64.796875 67.5 64.703125 67.40625 64.09375 65.90625 
L 42.5 7.84375 
z
" id="CMR17-77"/>
       <path d="M 41.5 30.203125 
C 41.5 35.296875 40.5 43.59375 28.703125 43.59375 
C 20.5 43.59375 16.5 37 15.296875 33.703125 
L 15.203125 33.703125 
L 15.203125 68.6875 
L 3.296875 67.59375 
L 3.296875 65 
C 9.203125 65 10.09375 64.40625 10.09375 59.640625 
L 10.09375 6.65625 
C 10.09375 2.875 9.703125 2.390625 3.296875 2.390625 
L 3.296875 -0.203125 
C 5.703125 0 10.09375 0 12.703125 0 
C 15.296875 0 19.796875 0 22.203125 -0.203125 
L 22.203125 2.390625 
C 15.796875 2.390625 15.40625 2.78125 15.40625 6.6875 
L 15.40625 25.90625 
C 15.40625 35.109375 21 42 28 42 
C 35.40625 42 36.203125 35.40625 36.203125 30.59375 
L 36.203125 6.6875 
C 36.203125 2.875 35.796875 2.390625 29.40625 2.390625 
L 29.40625 -0.203125 
C 31.796875 0 36.203125 0 38.796875 0 
C 41.40625 0 45.90625 0 48.296875 -0.203125 
L 48.296875 2.390625 
C 41.90625 2.390625 41.5 2.78125 41.5 6.6875 
z
" id="CMR17-104"/>
      </defs>
      <use transform="scale(0.996264)" xlink:href="#CMR17-78"/>
      <use transform="translate(71.674884 0)scale(0.996264)" xlink:href="#CMR17-19"/>
      <use transform="translate(69.07243 0)scale(0.996264)" xlink:href="#CMR17-117"/>
      <use transform="translate(119.9678 0)scale(0.996264)" xlink:href="#CMR17-109"/>
      <use transform="translate(196.887389 0)scale(0.996264)" xlink:href="#CMR17-101"/>
      <use transform="translate(237.37305 0)scale(0.996264)" xlink:href="#CMR17-114"/>
      <use transform="translate(272.653818 0)scale(0.996264)" xlink:href="#CMR17-111"/>
      <use transform="translate(348.420261 0)scale(0.996264)" xlink:href="#CMR17-100"/>
      <use transform="translate(399.315631 0)scale(0.996264)" xlink:href="#CMR17-101"/>
      <use transform="translate(469.877258 0)scale(0.996264)" xlink:href="#CMR17-77"/>
      <use transform="translate(554.564198 0)scale(0.996264)" xlink:href="#CMR17-97"/>
      <use transform="translate(600.254675 0)scale(0.996264)" xlink:href="#CMR17-99"/>
      <use transform="translate(638.137882 0)scale(0.996264)" xlink:href="#CMR17-104"/>
     </g>
    </g>
   </g>
  </g>
 </g>
 <defs>
  <clipPath id="pdb5ca1e0e8">
   <rect height="221.76" width="669.6" x="46.297021" y="3.6"/>
  </clipPath>
 </defs>
</svg>
